M48
; DRILL file {KiCad 7.0.7} date 2023 September 17, Sunday 16:54:03
; FORMAT={-:-/ absolute / inch / decimal}
; #@! TF.CreationDate,2023-09-17T16:54:03-03:00
; #@! TF.GenerationSoftware,Kicad,Pcbnew,7.0.7
; #@! TF.FileFunction,Plated,1,2,PTH
FMAT,2
INCH
; #@! TA.AperFunction,Plated,PTH,ViaDrill
T1C0.0157
; #@! TA.AperFunction,Plated,PTH,ComponentDrill
T2C0.0295
; #@! TA.AperFunction,Plated,PTH,ComponentDrill
T3C0.0315
; #@! TA.AperFunction,Plated,PTH,ComponentDrill
T4C0.0394
; #@! TA.AperFunction,Plated,PTH,ComponentDrill
T5C0.0433
; #@! TA.AperFunction,Plated,PTH,ComponentDrill
T6C0.1063
%
G90
G05
T1
X3.8386Y-3.3465
X4.0354Y-3.0512
T2
X5.7071Y-4.0354
X5.7571Y-4.0354
X5.8071Y-4.0354
T3
X5.4331Y-4.1339
X5.4331Y-4.4291
X5.4331Y-4.7244
X5.5118Y-4.1339
X5.5118Y-4.4291
X5.5118Y-4.7244
X5.6102Y-2.8512
X5.6102Y-3.2512
X5.6102Y-3.4449
X5.6102Y-3.8449
X5.8071Y-2.8512
X5.8071Y-3.2512
X5.8071Y-3.4449
X5.8071Y-3.8449
T4
X3.9276Y-2.8543
X3.9291Y-3.8386
X4.0276Y-2.8543
X4.0291Y-3.8386
X4.1276Y-2.8543
X4.1291Y-3.8386
X4.2276Y-2.8543
X4.2291Y-3.8386
X4.3276Y-2.8543
X4.3291Y-3.8386
X4.4276Y-2.8543
X4.4291Y-3.8386
X4.5276Y-2.8543
X4.5291Y-3.8386
X4.6276Y-2.8543
X4.6291Y-3.8386
X4.7276Y-2.8543
X4.7291Y-3.8386
X4.8276Y-2.8543
X4.8291Y-3.8386
X4.9276Y-2.8543
X4.9291Y-3.8386
X5.0276Y-2.8543
X5.0291Y-3.8386
X5.1276Y-2.8543
X5.1291Y-3.8386
X5.2276Y-2.8543
X5.2291Y-3.8386
X5.3276Y-2.8543
X5.3291Y-3.8386
T5
X4.4276Y-4.0657
X4.5276Y-4.0657
X4.6276Y-4.0657
X4.9197Y-4.0657
X5.0197Y-4.0657
X5.1197Y-4.0657
T6
X5.8071Y-4.4291
X5.8071Y-4.626
T4
G00X3.937Y-4.3898
M15
G01X3.937Y-4.4685
M16
G05
G00X4.0157Y-4.6142
M15
G01X4.0945Y-4.6142
M16
G05
G00X4.1732Y-4.3898
M15
G01X4.1732Y-4.4685
M16
G05
T0
M30
