%TF.GenerationSoftware,KiCad,Pcbnew,7.0.7*%
%TF.CreationDate,2023-09-17T16:54:02-03:00*%
%TF.ProjectId,nihon_lamp,6e69686f-6e5f-46c6-916d-702e6b696361,rev?*%
%TF.SameCoordinates,Original*%
%TF.FileFunction,Drillmap*%
%TF.FilePolarity,Positive*%
%FSLAX45Y45*%
G04 Gerber Fmt 4.5, Leading zero omitted, Abs format (unit mm)*
G04 Created by KiCad (PCBNEW 7.0.7) date 2023-09-17 16:54:02*
%MOMM*%
%LPD*%
G01*
G04 APERTURE LIST*
%ADD10C,0.100000*%
%ADD11C,0.200000*%
%ADD12C,0.040000*%
%ADD13C,0.075000*%
%ADD14C,0.080000*%
%ADD15C,0.110000*%
%ADD16C,0.270000*%
G04 APERTURE END LIST*
D10*
X9500000Y-7000000D02*
X15250000Y-7000000D01*
X15250000Y-12500000D01*
X9500000Y-12500000D01*
X9500000Y-7000000D01*
D11*
D12*
X9730000Y-8480000D02*
X9770000Y-8520000D01*
X9770000Y-8480000D02*
X9730000Y-8520000D01*
X10230000Y-7730000D02*
X10270000Y-7770000D01*
X10270000Y-7730000D02*
X10230000Y-7770000D01*
D13*
X14533500Y-10250000D02*
G75*
G03*
X14533500Y-10250000I-37500J0D01*
G01*
X14660500Y-10250000D02*
G75*
G03*
X14660500Y-10250000I-37500J0D01*
G01*
X14787500Y-10250000D02*
G75*
G03*
X14787500Y-10250000I-37500J0D01*
G01*
D14*
X13800000Y-10460000D02*
X13800000Y-10540000D01*
X13760000Y-10500000D02*
X13840000Y-10500000D01*
X13800000Y-11210000D02*
X13800000Y-11290000D01*
X13760000Y-11250000D02*
X13840000Y-11250000D01*
X13800000Y-11960000D02*
X13800000Y-12040000D01*
X13760000Y-12000000D02*
X13840000Y-12000000D01*
X14000000Y-10460000D02*
X14000000Y-10540000D01*
X13960000Y-10500000D02*
X14040000Y-10500000D01*
X14000000Y-11210000D02*
X14000000Y-11290000D01*
X13960000Y-11250000D02*
X14040000Y-11250000D01*
X14000000Y-11960000D02*
X14000000Y-12040000D01*
X13960000Y-12000000D02*
X14040000Y-12000000D01*
X14250000Y-7202000D02*
X14250000Y-7282000D01*
X14210000Y-7242000D02*
X14290000Y-7242000D01*
X14250000Y-8218000D02*
X14250000Y-8298000D01*
X14210000Y-8258000D02*
X14290000Y-8258000D01*
X14250000Y-8710000D02*
X14250000Y-8790000D01*
X14210000Y-8750000D02*
X14290000Y-8750000D01*
X14250000Y-9726000D02*
X14250000Y-9806000D01*
X14210000Y-9766000D02*
X14290000Y-9766000D01*
X14750000Y-7202000D02*
X14750000Y-7282000D01*
X14710000Y-7242000D02*
X14790000Y-7242000D01*
X14750000Y-8218000D02*
X14750000Y-8298000D01*
X14710000Y-8258000D02*
X14790000Y-8258000D01*
X14750000Y-8710000D02*
X14750000Y-8790000D01*
X14710000Y-8750000D02*
X14790000Y-8750000D01*
X14750000Y-9726000D02*
X14750000Y-9806000D01*
X14710000Y-9766000D02*
X14790000Y-9766000D01*
D10*
X10011356Y-7285356D02*
X10011356Y-7214644D01*
X9940644Y-7214644D01*
X9940644Y-7285356D01*
X10011356Y-7285356D01*
X10015356Y-9785356D02*
X10015356Y-9714644D01*
X9944644Y-9714644D01*
X9944644Y-9785356D01*
X10015356Y-9785356D01*
X10035356Y-11285356D02*
X10035356Y-11214644D01*
X9964644Y-11214644D01*
X9964644Y-11285356D01*
X10035356Y-11285356D01*
D11*
X9950000Y-11150000D02*
X9950000Y-11350000D01*
X9950000Y-11350000D02*
G75*
G03*
X10050000Y-11350000I50000J0D01*
G01*
X10050000Y-11350000D02*
X10050000Y-11150000D01*
X10050000Y-11150000D02*
G75*
G03*
X9950000Y-11150000I-50000J0D01*
G01*
D10*
X10265356Y-7285356D02*
X10265356Y-7214644D01*
X10194644Y-7214644D01*
X10194644Y-7285356D01*
X10265356Y-7285356D01*
X10269356Y-9785356D02*
X10269356Y-9714644D01*
X10198644Y-9714644D01*
X10198644Y-9785356D01*
X10269356Y-9785356D01*
X10335356Y-11755356D02*
X10335356Y-11684644D01*
X10264644Y-11684644D01*
X10264644Y-11755356D01*
X10335356Y-11755356D01*
D11*
X10200000Y-11770000D02*
X10400000Y-11770000D01*
X10400000Y-11770000D02*
G75*
G03*
X10400000Y-11670000I0J50000D01*
G01*
X10400000Y-11670000D02*
X10200000Y-11670000D01*
X10200000Y-11670000D02*
G75*
G03*
X10200000Y-11770000I0J-50000D01*
G01*
D10*
X10519356Y-7285356D02*
X10519356Y-7214644D01*
X10448644Y-7214644D01*
X10448644Y-7285356D01*
X10519356Y-7285356D01*
X10523356Y-9785356D02*
X10523356Y-9714644D01*
X10452644Y-9714644D01*
X10452644Y-9785356D01*
X10523356Y-9785356D01*
X10635356Y-11285356D02*
X10635356Y-11214644D01*
X10564644Y-11214644D01*
X10564644Y-11285356D01*
X10635356Y-11285356D01*
D11*
X10550000Y-11150000D02*
X10550000Y-11350000D01*
X10550000Y-11350000D02*
G75*
G03*
X10650000Y-11350000I50000J0D01*
G01*
X10650000Y-11350000D02*
X10650000Y-11150000D01*
X10650000Y-11150000D02*
G75*
G03*
X10550000Y-11150000I-50000J0D01*
G01*
D10*
X10773356Y-7285356D02*
X10773356Y-7214644D01*
X10702644Y-7214644D01*
X10702644Y-7285356D01*
X10773356Y-7285356D01*
X10777356Y-9785356D02*
X10777356Y-9714644D01*
X10706644Y-9714644D01*
X10706644Y-9785356D01*
X10777356Y-9785356D01*
X11027356Y-7285356D02*
X11027356Y-7214644D01*
X10956644Y-7214644D01*
X10956644Y-7285356D01*
X11027356Y-7285356D01*
X11031356Y-9785356D02*
X11031356Y-9714644D01*
X10960644Y-9714644D01*
X10960644Y-9785356D01*
X11031356Y-9785356D01*
X11281356Y-7285356D02*
X11281356Y-7214644D01*
X11210644Y-7214644D01*
X11210644Y-7285356D01*
X11281356Y-7285356D01*
X11285356Y-9785356D02*
X11285356Y-9714644D01*
X11214644Y-9714644D01*
X11214644Y-9785356D01*
X11285356Y-9785356D01*
X11535356Y-7285356D02*
X11535356Y-7214644D01*
X11464644Y-7214644D01*
X11464644Y-7285356D01*
X11535356Y-7285356D01*
X11539356Y-9785356D02*
X11539356Y-9714644D01*
X11468644Y-9714644D01*
X11468644Y-9785356D01*
X11539356Y-9785356D01*
X11789356Y-7285356D02*
X11789356Y-7214644D01*
X11718644Y-7214644D01*
X11718644Y-7285356D01*
X11789356Y-7285356D01*
X11793356Y-9785356D02*
X11793356Y-9714644D01*
X11722644Y-9714644D01*
X11722644Y-9785356D01*
X11793356Y-9785356D01*
X12043356Y-7285356D02*
X12043356Y-7214644D01*
X11972644Y-7214644D01*
X11972644Y-7285356D01*
X12043356Y-7285356D01*
X12047356Y-9785356D02*
X12047356Y-9714644D01*
X11976644Y-9714644D01*
X11976644Y-9785356D01*
X12047356Y-9785356D01*
X12297356Y-7285356D02*
X12297356Y-7214644D01*
X12226644Y-7214644D01*
X12226644Y-7285356D01*
X12297356Y-7285356D01*
X12301356Y-9785356D02*
X12301356Y-9714644D01*
X12230644Y-9714644D01*
X12230644Y-9785356D01*
X12301356Y-9785356D01*
X12551356Y-7285356D02*
X12551356Y-7214644D01*
X12480644Y-7214644D01*
X12480644Y-7285356D01*
X12551356Y-7285356D01*
X12555356Y-9785356D02*
X12555356Y-9714644D01*
X12484644Y-9714644D01*
X12484644Y-9785356D01*
X12555356Y-9785356D01*
X12805356Y-7285356D02*
X12805356Y-7214644D01*
X12734644Y-7214644D01*
X12734644Y-7285356D01*
X12805356Y-7285356D01*
X12809356Y-9785356D02*
X12809356Y-9714644D01*
X12738644Y-9714644D01*
X12738644Y-9785356D01*
X12809356Y-9785356D01*
X13059356Y-7285356D02*
X13059356Y-7214644D01*
X12988644Y-7214644D01*
X12988644Y-7285356D01*
X13059356Y-7285356D01*
X13063356Y-9785356D02*
X13063356Y-9714644D01*
X12992644Y-9714644D01*
X12992644Y-9785356D01*
X13063356Y-9785356D01*
X13313356Y-7285356D02*
X13313356Y-7214644D01*
X13242644Y-7214644D01*
X13242644Y-7285356D01*
X13313356Y-7285356D01*
X13317356Y-9785356D02*
X13317356Y-9714644D01*
X13246644Y-9714644D01*
X13246644Y-9785356D01*
X13317356Y-9785356D01*
X13567356Y-7285356D02*
X13567356Y-7214644D01*
X13496644Y-7214644D01*
X13496644Y-7285356D01*
X13567356Y-7285356D01*
X13571356Y-9785356D02*
X13571356Y-9714644D01*
X13500644Y-9714644D01*
X13500644Y-9785356D01*
X13571356Y-9785356D01*
D15*
X11246000Y-10382000D02*
X11301000Y-10327000D01*
X11246000Y-10272000D01*
X11191000Y-10327000D01*
X11246000Y-10382000D01*
X11500000Y-10382000D02*
X11555000Y-10327000D01*
X11500000Y-10272000D01*
X11445000Y-10327000D01*
X11500000Y-10382000D01*
X11754000Y-10382000D02*
X11809000Y-10327000D01*
X11754000Y-10272000D01*
X11699000Y-10327000D01*
X11754000Y-10382000D01*
X12496000Y-10382000D02*
X12551000Y-10327000D01*
X12496000Y-10272000D01*
X12441000Y-10327000D01*
X12496000Y-10382000D01*
X12750000Y-10382000D02*
X12805000Y-10327000D01*
X12750000Y-10272000D01*
X12695000Y-10327000D01*
X12750000Y-10382000D01*
X13004000Y-10382000D02*
X13059000Y-10327000D01*
X13004000Y-10272000D01*
X12949000Y-10327000D01*
X13004000Y-10382000D01*
D16*
X14615000Y-11115000D02*
X14885000Y-11385000D01*
X14885000Y-11115000D02*
X14615000Y-11385000D01*
X14885000Y-11250000D02*
G75*
G03*
X14885000Y-11250000I-135000J0D01*
G01*
X14615000Y-11615000D02*
X14885000Y-11885000D01*
X14885000Y-11615000D02*
X14615000Y-11885000D01*
X14885000Y-11750000D02*
G75*
G03*
X14885000Y-11750000I-135000J0D01*
G01*
D11*
X9755777Y-12816484D02*
X9755777Y-12616484D01*
X9755777Y-12616484D02*
X9803396Y-12616484D01*
X9803396Y-12616484D02*
X9831967Y-12626008D01*
X9831967Y-12626008D02*
X9851015Y-12645055D01*
X9851015Y-12645055D02*
X9860539Y-12664103D01*
X9860539Y-12664103D02*
X9870063Y-12702198D01*
X9870063Y-12702198D02*
X9870063Y-12730769D01*
X9870063Y-12730769D02*
X9860539Y-12768865D01*
X9860539Y-12768865D02*
X9851015Y-12787912D01*
X9851015Y-12787912D02*
X9831967Y-12806960D01*
X9831967Y-12806960D02*
X9803396Y-12816484D01*
X9803396Y-12816484D02*
X9755777Y-12816484D01*
X9955777Y-12816484D02*
X9955777Y-12683150D01*
X9955777Y-12721246D02*
X9965301Y-12702198D01*
X9965301Y-12702198D02*
X9974824Y-12692674D01*
X9974824Y-12692674D02*
X9993872Y-12683150D01*
X9993872Y-12683150D02*
X10012920Y-12683150D01*
X10079586Y-12816484D02*
X10079586Y-12683150D01*
X10079586Y-12616484D02*
X10070063Y-12626008D01*
X10070063Y-12626008D02*
X10079586Y-12635531D01*
X10079586Y-12635531D02*
X10089110Y-12626008D01*
X10089110Y-12626008D02*
X10079586Y-12616484D01*
X10079586Y-12616484D02*
X10079586Y-12635531D01*
X10203396Y-12816484D02*
X10184348Y-12806960D01*
X10184348Y-12806960D02*
X10174824Y-12787912D01*
X10174824Y-12787912D02*
X10174824Y-12616484D01*
X10308158Y-12816484D02*
X10289110Y-12806960D01*
X10289110Y-12806960D02*
X10279586Y-12787912D01*
X10279586Y-12787912D02*
X10279586Y-12616484D01*
X10536729Y-12816484D02*
X10536729Y-12616484D01*
X10536729Y-12616484D02*
X10603396Y-12759341D01*
X10603396Y-12759341D02*
X10670063Y-12616484D01*
X10670063Y-12616484D02*
X10670063Y-12816484D01*
X10851015Y-12816484D02*
X10851015Y-12711722D01*
X10851015Y-12711722D02*
X10841491Y-12692674D01*
X10841491Y-12692674D02*
X10822444Y-12683150D01*
X10822444Y-12683150D02*
X10784348Y-12683150D01*
X10784348Y-12683150D02*
X10765301Y-12692674D01*
X10851015Y-12806960D02*
X10831967Y-12816484D01*
X10831967Y-12816484D02*
X10784348Y-12816484D01*
X10784348Y-12816484D02*
X10765301Y-12806960D01*
X10765301Y-12806960D02*
X10755777Y-12787912D01*
X10755777Y-12787912D02*
X10755777Y-12768865D01*
X10755777Y-12768865D02*
X10765301Y-12749817D01*
X10765301Y-12749817D02*
X10784348Y-12740293D01*
X10784348Y-12740293D02*
X10831967Y-12740293D01*
X10831967Y-12740293D02*
X10851015Y-12730769D01*
X10946253Y-12683150D02*
X10946253Y-12883150D01*
X10946253Y-12692674D02*
X10965301Y-12683150D01*
X10965301Y-12683150D02*
X11003396Y-12683150D01*
X11003396Y-12683150D02*
X11022444Y-12692674D01*
X11022444Y-12692674D02*
X11031967Y-12702198D01*
X11031967Y-12702198D02*
X11041491Y-12721246D01*
X11041491Y-12721246D02*
X11041491Y-12778388D01*
X11041491Y-12778388D02*
X11031967Y-12797436D01*
X11031967Y-12797436D02*
X11022444Y-12806960D01*
X11022444Y-12806960D02*
X11003396Y-12816484D01*
X11003396Y-12816484D02*
X10965301Y-12816484D01*
X10965301Y-12816484D02*
X10946253Y-12806960D01*
X11127205Y-12797436D02*
X11136729Y-12806960D01*
X11136729Y-12806960D02*
X11127205Y-12816484D01*
X11127205Y-12816484D02*
X11117682Y-12806960D01*
X11117682Y-12806960D02*
X11127205Y-12797436D01*
X11127205Y-12797436D02*
X11127205Y-12816484D01*
X11127205Y-12692674D02*
X11136729Y-12702198D01*
X11136729Y-12702198D02*
X11127205Y-12711722D01*
X11127205Y-12711722D02*
X11117682Y-12702198D01*
X11117682Y-12702198D02*
X11127205Y-12692674D01*
X11127205Y-12692674D02*
X11127205Y-12711722D01*
D12*
X9455000Y-13125000D02*
X9495000Y-13165000D01*
X9495000Y-13125000D02*
X9455000Y-13165000D01*
D11*
X9793872Y-13036484D02*
X9812920Y-13036484D01*
X9812920Y-13036484D02*
X9831967Y-13046008D01*
X9831967Y-13046008D02*
X9841491Y-13055531D01*
X9841491Y-13055531D02*
X9851015Y-13074579D01*
X9851015Y-13074579D02*
X9860539Y-13112674D01*
X9860539Y-13112674D02*
X9860539Y-13160293D01*
X9860539Y-13160293D02*
X9851015Y-13198388D01*
X9851015Y-13198388D02*
X9841491Y-13217436D01*
X9841491Y-13217436D02*
X9831967Y-13226960D01*
X9831967Y-13226960D02*
X9812920Y-13236484D01*
X9812920Y-13236484D02*
X9793872Y-13236484D01*
X9793872Y-13236484D02*
X9774824Y-13226960D01*
X9774824Y-13226960D02*
X9765301Y-13217436D01*
X9765301Y-13217436D02*
X9755777Y-13198388D01*
X9755777Y-13198388D02*
X9746253Y-13160293D01*
X9746253Y-13160293D02*
X9746253Y-13112674D01*
X9746253Y-13112674D02*
X9755777Y-13074579D01*
X9755777Y-13074579D02*
X9765301Y-13055531D01*
X9765301Y-13055531D02*
X9774824Y-13046008D01*
X9774824Y-13046008D02*
X9793872Y-13036484D01*
X9946253Y-13217436D02*
X9955777Y-13226960D01*
X9955777Y-13226960D02*
X9946253Y-13236484D01*
X9946253Y-13236484D02*
X9936729Y-13226960D01*
X9936729Y-13226960D02*
X9946253Y-13217436D01*
X9946253Y-13217436D02*
X9946253Y-13236484D01*
X10127205Y-13103150D02*
X10127205Y-13236484D01*
X10079586Y-13026960D02*
X10031967Y-13169817D01*
X10031967Y-13169817D02*
X10155777Y-13169817D01*
X10270063Y-13036484D02*
X10289110Y-13036484D01*
X10289110Y-13036484D02*
X10308158Y-13046008D01*
X10308158Y-13046008D02*
X10317682Y-13055531D01*
X10317682Y-13055531D02*
X10327205Y-13074579D01*
X10327205Y-13074579D02*
X10336729Y-13112674D01*
X10336729Y-13112674D02*
X10336729Y-13160293D01*
X10336729Y-13160293D02*
X10327205Y-13198388D01*
X10327205Y-13198388D02*
X10317682Y-13217436D01*
X10317682Y-13217436D02*
X10308158Y-13226960D01*
X10308158Y-13226960D02*
X10289110Y-13236484D01*
X10289110Y-13236484D02*
X10270063Y-13236484D01*
X10270063Y-13236484D02*
X10251015Y-13226960D01*
X10251015Y-13226960D02*
X10241491Y-13217436D01*
X10241491Y-13217436D02*
X10231967Y-13198388D01*
X10231967Y-13198388D02*
X10222444Y-13160293D01*
X10222444Y-13160293D02*
X10222444Y-13112674D01*
X10222444Y-13112674D02*
X10231967Y-13074579D01*
X10231967Y-13074579D02*
X10241491Y-13055531D01*
X10241491Y-13055531D02*
X10251015Y-13046008D01*
X10251015Y-13046008D02*
X10270063Y-13036484D01*
X10460539Y-13036484D02*
X10479586Y-13036484D01*
X10479586Y-13036484D02*
X10498634Y-13046008D01*
X10498634Y-13046008D02*
X10508158Y-13055531D01*
X10508158Y-13055531D02*
X10517682Y-13074579D01*
X10517682Y-13074579D02*
X10527205Y-13112674D01*
X10527205Y-13112674D02*
X10527205Y-13160293D01*
X10527205Y-13160293D02*
X10517682Y-13198388D01*
X10517682Y-13198388D02*
X10508158Y-13217436D01*
X10508158Y-13217436D02*
X10498634Y-13226960D01*
X10498634Y-13226960D02*
X10479586Y-13236484D01*
X10479586Y-13236484D02*
X10460539Y-13236484D01*
X10460539Y-13236484D02*
X10441491Y-13226960D01*
X10441491Y-13226960D02*
X10431967Y-13217436D01*
X10431967Y-13217436D02*
X10422444Y-13198388D01*
X10422444Y-13198388D02*
X10412920Y-13160293D01*
X10412920Y-13160293D02*
X10412920Y-13112674D01*
X10412920Y-13112674D02*
X10422444Y-13074579D01*
X10422444Y-13074579D02*
X10431967Y-13055531D01*
X10431967Y-13055531D02*
X10441491Y-13046008D01*
X10441491Y-13046008D02*
X10460539Y-13036484D01*
X10612920Y-13236484D02*
X10612920Y-13103150D01*
X10612920Y-13122198D02*
X10622444Y-13112674D01*
X10622444Y-13112674D02*
X10641491Y-13103150D01*
X10641491Y-13103150D02*
X10670063Y-13103150D01*
X10670063Y-13103150D02*
X10689110Y-13112674D01*
X10689110Y-13112674D02*
X10698634Y-13131722D01*
X10698634Y-13131722D02*
X10698634Y-13236484D01*
X10698634Y-13131722D02*
X10708158Y-13112674D01*
X10708158Y-13112674D02*
X10727205Y-13103150D01*
X10727205Y-13103150D02*
X10755777Y-13103150D01*
X10755777Y-13103150D02*
X10774825Y-13112674D01*
X10774825Y-13112674D02*
X10784348Y-13131722D01*
X10784348Y-13131722D02*
X10784348Y-13236484D01*
X10879586Y-13236484D02*
X10879586Y-13103150D01*
X10879586Y-13122198D02*
X10889110Y-13112674D01*
X10889110Y-13112674D02*
X10908158Y-13103150D01*
X10908158Y-13103150D02*
X10936729Y-13103150D01*
X10936729Y-13103150D02*
X10955777Y-13112674D01*
X10955777Y-13112674D02*
X10965301Y-13131722D01*
X10965301Y-13131722D02*
X10965301Y-13236484D01*
X10965301Y-13131722D02*
X10974825Y-13112674D01*
X10974825Y-13112674D02*
X10993872Y-13103150D01*
X10993872Y-13103150D02*
X11022444Y-13103150D01*
X11022444Y-13103150D02*
X11041491Y-13112674D01*
X11041491Y-13112674D02*
X11051015Y-13131722D01*
X11051015Y-13131722D02*
X11051015Y-13236484D01*
X11441491Y-13026960D02*
X11270063Y-13284103D01*
X11698634Y-13036484D02*
X11717682Y-13036484D01*
X11717682Y-13036484D02*
X11736729Y-13046008D01*
X11736729Y-13046008D02*
X11746253Y-13055531D01*
X11746253Y-13055531D02*
X11755777Y-13074579D01*
X11755777Y-13074579D02*
X11765301Y-13112674D01*
X11765301Y-13112674D02*
X11765301Y-13160293D01*
X11765301Y-13160293D02*
X11755777Y-13198388D01*
X11755777Y-13198388D02*
X11746253Y-13217436D01*
X11746253Y-13217436D02*
X11736729Y-13226960D01*
X11736729Y-13226960D02*
X11717682Y-13236484D01*
X11717682Y-13236484D02*
X11698634Y-13236484D01*
X11698634Y-13236484D02*
X11679586Y-13226960D01*
X11679586Y-13226960D02*
X11670063Y-13217436D01*
X11670063Y-13217436D02*
X11660539Y-13198388D01*
X11660539Y-13198388D02*
X11651015Y-13160293D01*
X11651015Y-13160293D02*
X11651015Y-13112674D01*
X11651015Y-13112674D02*
X11660539Y-13074579D01*
X11660539Y-13074579D02*
X11670063Y-13055531D01*
X11670063Y-13055531D02*
X11679586Y-13046008D01*
X11679586Y-13046008D02*
X11698634Y-13036484D01*
X11851015Y-13217436D02*
X11860539Y-13226960D01*
X11860539Y-13226960D02*
X11851015Y-13236484D01*
X11851015Y-13236484D02*
X11841491Y-13226960D01*
X11841491Y-13226960D02*
X11851015Y-13217436D01*
X11851015Y-13217436D02*
X11851015Y-13236484D01*
X11984348Y-13036484D02*
X12003396Y-13036484D01*
X12003396Y-13036484D02*
X12022444Y-13046008D01*
X12022444Y-13046008D02*
X12031967Y-13055531D01*
X12031967Y-13055531D02*
X12041491Y-13074579D01*
X12041491Y-13074579D02*
X12051015Y-13112674D01*
X12051015Y-13112674D02*
X12051015Y-13160293D01*
X12051015Y-13160293D02*
X12041491Y-13198388D01*
X12041491Y-13198388D02*
X12031967Y-13217436D01*
X12031967Y-13217436D02*
X12022444Y-13226960D01*
X12022444Y-13226960D02*
X12003396Y-13236484D01*
X12003396Y-13236484D02*
X11984348Y-13236484D01*
X11984348Y-13236484D02*
X11965301Y-13226960D01*
X11965301Y-13226960D02*
X11955777Y-13217436D01*
X11955777Y-13217436D02*
X11946253Y-13198388D01*
X11946253Y-13198388D02*
X11936729Y-13160293D01*
X11936729Y-13160293D02*
X11936729Y-13112674D01*
X11936729Y-13112674D02*
X11946253Y-13074579D01*
X11946253Y-13074579D02*
X11955777Y-13055531D01*
X11955777Y-13055531D02*
X11965301Y-13046008D01*
X11965301Y-13046008D02*
X11984348Y-13036484D01*
X12241491Y-13236484D02*
X12127206Y-13236484D01*
X12184348Y-13236484D02*
X12184348Y-13036484D01*
X12184348Y-13036484D02*
X12165301Y-13065055D01*
X12165301Y-13065055D02*
X12146253Y-13084103D01*
X12146253Y-13084103D02*
X12127206Y-13093627D01*
X12422444Y-13036484D02*
X12327206Y-13036484D01*
X12327206Y-13036484D02*
X12317682Y-13131722D01*
X12317682Y-13131722D02*
X12327206Y-13122198D01*
X12327206Y-13122198D02*
X12346253Y-13112674D01*
X12346253Y-13112674D02*
X12393872Y-13112674D01*
X12393872Y-13112674D02*
X12412920Y-13122198D01*
X12412920Y-13122198D02*
X12422444Y-13131722D01*
X12422444Y-13131722D02*
X12431967Y-13150769D01*
X12431967Y-13150769D02*
X12431967Y-13198388D01*
X12431967Y-13198388D02*
X12422444Y-13217436D01*
X12422444Y-13217436D02*
X12412920Y-13226960D01*
X12412920Y-13226960D02*
X12393872Y-13236484D01*
X12393872Y-13236484D02*
X12346253Y-13236484D01*
X12346253Y-13236484D02*
X12327206Y-13226960D01*
X12327206Y-13226960D02*
X12317682Y-13217436D01*
X12498634Y-13036484D02*
X12631967Y-13036484D01*
X12631967Y-13036484D02*
X12546253Y-13236484D01*
X12698634Y-13036484D02*
X12698634Y-13074579D01*
X12774825Y-13036484D02*
X12774825Y-13074579D01*
X13070063Y-13312674D02*
X13060539Y-13303150D01*
X13060539Y-13303150D02*
X13041491Y-13274579D01*
X13041491Y-13274579D02*
X13031968Y-13255531D01*
X13031968Y-13255531D02*
X13022444Y-13226960D01*
X13022444Y-13226960D02*
X13012920Y-13179341D01*
X13012920Y-13179341D02*
X13012920Y-13141246D01*
X13012920Y-13141246D02*
X13022444Y-13093627D01*
X13022444Y-13093627D02*
X13031968Y-13065055D01*
X13031968Y-13065055D02*
X13041491Y-13046008D01*
X13041491Y-13046008D02*
X13060539Y-13017436D01*
X13060539Y-13017436D02*
X13070063Y-13007912D01*
X13136729Y-13055531D02*
X13146253Y-13046008D01*
X13146253Y-13046008D02*
X13165301Y-13036484D01*
X13165301Y-13036484D02*
X13212920Y-13036484D01*
X13212920Y-13036484D02*
X13231968Y-13046008D01*
X13231968Y-13046008D02*
X13241491Y-13055531D01*
X13241491Y-13055531D02*
X13251015Y-13074579D01*
X13251015Y-13074579D02*
X13251015Y-13093627D01*
X13251015Y-13093627D02*
X13241491Y-13122198D01*
X13241491Y-13122198D02*
X13127206Y-13236484D01*
X13127206Y-13236484D02*
X13251015Y-13236484D01*
X13489110Y-13236484D02*
X13489110Y-13036484D01*
X13574825Y-13236484D02*
X13574825Y-13131722D01*
X13574825Y-13131722D02*
X13565301Y-13112674D01*
X13565301Y-13112674D02*
X13546253Y-13103150D01*
X13546253Y-13103150D02*
X13517682Y-13103150D01*
X13517682Y-13103150D02*
X13498634Y-13112674D01*
X13498634Y-13112674D02*
X13489110Y-13122198D01*
X13698634Y-13236484D02*
X13679587Y-13226960D01*
X13679587Y-13226960D02*
X13670063Y-13217436D01*
X13670063Y-13217436D02*
X13660539Y-13198388D01*
X13660539Y-13198388D02*
X13660539Y-13141246D01*
X13660539Y-13141246D02*
X13670063Y-13122198D01*
X13670063Y-13122198D02*
X13679587Y-13112674D01*
X13679587Y-13112674D02*
X13698634Y-13103150D01*
X13698634Y-13103150D02*
X13727206Y-13103150D01*
X13727206Y-13103150D02*
X13746253Y-13112674D01*
X13746253Y-13112674D02*
X13755777Y-13122198D01*
X13755777Y-13122198D02*
X13765301Y-13141246D01*
X13765301Y-13141246D02*
X13765301Y-13198388D01*
X13765301Y-13198388D02*
X13755777Y-13217436D01*
X13755777Y-13217436D02*
X13746253Y-13226960D01*
X13746253Y-13226960D02*
X13727206Y-13236484D01*
X13727206Y-13236484D02*
X13698634Y-13236484D01*
X13879587Y-13236484D02*
X13860539Y-13226960D01*
X13860539Y-13226960D02*
X13851015Y-13207912D01*
X13851015Y-13207912D02*
X13851015Y-13036484D01*
X14031968Y-13226960D02*
X14012920Y-13236484D01*
X14012920Y-13236484D02*
X13974825Y-13236484D01*
X13974825Y-13236484D02*
X13955777Y-13226960D01*
X13955777Y-13226960D02*
X13946253Y-13207912D01*
X13946253Y-13207912D02*
X13946253Y-13131722D01*
X13946253Y-13131722D02*
X13955777Y-13112674D01*
X13955777Y-13112674D02*
X13974825Y-13103150D01*
X13974825Y-13103150D02*
X14012920Y-13103150D01*
X14012920Y-13103150D02*
X14031968Y-13112674D01*
X14031968Y-13112674D02*
X14041491Y-13131722D01*
X14041491Y-13131722D02*
X14041491Y-13150769D01*
X14041491Y-13150769D02*
X13946253Y-13169817D01*
X14117682Y-13226960D02*
X14136730Y-13236484D01*
X14136730Y-13236484D02*
X14174825Y-13236484D01*
X14174825Y-13236484D02*
X14193872Y-13226960D01*
X14193872Y-13226960D02*
X14203396Y-13207912D01*
X14203396Y-13207912D02*
X14203396Y-13198388D01*
X14203396Y-13198388D02*
X14193872Y-13179341D01*
X14193872Y-13179341D02*
X14174825Y-13169817D01*
X14174825Y-13169817D02*
X14146253Y-13169817D01*
X14146253Y-13169817D02*
X14127206Y-13160293D01*
X14127206Y-13160293D02*
X14117682Y-13141246D01*
X14117682Y-13141246D02*
X14117682Y-13131722D01*
X14117682Y-13131722D02*
X14127206Y-13112674D01*
X14127206Y-13112674D02*
X14146253Y-13103150D01*
X14146253Y-13103150D02*
X14174825Y-13103150D01*
X14174825Y-13103150D02*
X14193872Y-13112674D01*
X14270063Y-13312674D02*
X14279587Y-13303150D01*
X14279587Y-13303150D02*
X14298634Y-13274579D01*
X14298634Y-13274579D02*
X14308158Y-13255531D01*
X14308158Y-13255531D02*
X14317682Y-13226960D01*
X14317682Y-13226960D02*
X14327206Y-13179341D01*
X14327206Y-13179341D02*
X14327206Y-13141246D01*
X14327206Y-13141246D02*
X14317682Y-13093627D01*
X14317682Y-13093627D02*
X14308158Y-13065055D01*
X14308158Y-13065055D02*
X14298634Y-13046008D01*
X14298634Y-13046008D02*
X14279587Y-13017436D01*
X14279587Y-13017436D02*
X14270063Y-13007912D01*
D13*
X9495000Y-13409000D02*
G75*
G03*
X9495000Y-13409000I-37500J0D01*
G01*
D11*
X9793872Y-13300484D02*
X9812920Y-13300484D01*
X9812920Y-13300484D02*
X9831967Y-13310008D01*
X9831967Y-13310008D02*
X9841491Y-13319531D01*
X9841491Y-13319531D02*
X9851015Y-13338579D01*
X9851015Y-13338579D02*
X9860539Y-13376674D01*
X9860539Y-13376674D02*
X9860539Y-13424293D01*
X9860539Y-13424293D02*
X9851015Y-13462388D01*
X9851015Y-13462388D02*
X9841491Y-13481436D01*
X9841491Y-13481436D02*
X9831967Y-13490960D01*
X9831967Y-13490960D02*
X9812920Y-13500484D01*
X9812920Y-13500484D02*
X9793872Y-13500484D01*
X9793872Y-13500484D02*
X9774824Y-13490960D01*
X9774824Y-13490960D02*
X9765301Y-13481436D01*
X9765301Y-13481436D02*
X9755777Y-13462388D01*
X9755777Y-13462388D02*
X9746253Y-13424293D01*
X9746253Y-13424293D02*
X9746253Y-13376674D01*
X9746253Y-13376674D02*
X9755777Y-13338579D01*
X9755777Y-13338579D02*
X9765301Y-13319531D01*
X9765301Y-13319531D02*
X9774824Y-13310008D01*
X9774824Y-13310008D02*
X9793872Y-13300484D01*
X9946253Y-13481436D02*
X9955777Y-13490960D01*
X9955777Y-13490960D02*
X9946253Y-13500484D01*
X9946253Y-13500484D02*
X9936729Y-13490960D01*
X9936729Y-13490960D02*
X9946253Y-13481436D01*
X9946253Y-13481436D02*
X9946253Y-13500484D01*
X10022444Y-13300484D02*
X10155777Y-13300484D01*
X10155777Y-13300484D02*
X10070063Y-13500484D01*
X10327205Y-13300484D02*
X10231967Y-13300484D01*
X10231967Y-13300484D02*
X10222444Y-13395722D01*
X10222444Y-13395722D02*
X10231967Y-13386198D01*
X10231967Y-13386198D02*
X10251015Y-13376674D01*
X10251015Y-13376674D02*
X10298634Y-13376674D01*
X10298634Y-13376674D02*
X10317682Y-13386198D01*
X10317682Y-13386198D02*
X10327205Y-13395722D01*
X10327205Y-13395722D02*
X10336729Y-13414769D01*
X10336729Y-13414769D02*
X10336729Y-13462388D01*
X10336729Y-13462388D02*
X10327205Y-13481436D01*
X10327205Y-13481436D02*
X10317682Y-13490960D01*
X10317682Y-13490960D02*
X10298634Y-13500484D01*
X10298634Y-13500484D02*
X10251015Y-13500484D01*
X10251015Y-13500484D02*
X10231967Y-13490960D01*
X10231967Y-13490960D02*
X10222444Y-13481436D01*
X10460539Y-13300484D02*
X10479586Y-13300484D01*
X10479586Y-13300484D02*
X10498634Y-13310008D01*
X10498634Y-13310008D02*
X10508158Y-13319531D01*
X10508158Y-13319531D02*
X10517682Y-13338579D01*
X10517682Y-13338579D02*
X10527205Y-13376674D01*
X10527205Y-13376674D02*
X10527205Y-13424293D01*
X10527205Y-13424293D02*
X10517682Y-13462388D01*
X10517682Y-13462388D02*
X10508158Y-13481436D01*
X10508158Y-13481436D02*
X10498634Y-13490960D01*
X10498634Y-13490960D02*
X10479586Y-13500484D01*
X10479586Y-13500484D02*
X10460539Y-13500484D01*
X10460539Y-13500484D02*
X10441491Y-13490960D01*
X10441491Y-13490960D02*
X10431967Y-13481436D01*
X10431967Y-13481436D02*
X10422444Y-13462388D01*
X10422444Y-13462388D02*
X10412920Y-13424293D01*
X10412920Y-13424293D02*
X10412920Y-13376674D01*
X10412920Y-13376674D02*
X10422444Y-13338579D01*
X10422444Y-13338579D02*
X10431967Y-13319531D01*
X10431967Y-13319531D02*
X10441491Y-13310008D01*
X10441491Y-13310008D02*
X10460539Y-13300484D01*
X10612920Y-13500484D02*
X10612920Y-13367150D01*
X10612920Y-13386198D02*
X10622444Y-13376674D01*
X10622444Y-13376674D02*
X10641491Y-13367150D01*
X10641491Y-13367150D02*
X10670063Y-13367150D01*
X10670063Y-13367150D02*
X10689110Y-13376674D01*
X10689110Y-13376674D02*
X10698634Y-13395722D01*
X10698634Y-13395722D02*
X10698634Y-13500484D01*
X10698634Y-13395722D02*
X10708158Y-13376674D01*
X10708158Y-13376674D02*
X10727205Y-13367150D01*
X10727205Y-13367150D02*
X10755777Y-13367150D01*
X10755777Y-13367150D02*
X10774825Y-13376674D01*
X10774825Y-13376674D02*
X10784348Y-13395722D01*
X10784348Y-13395722D02*
X10784348Y-13500484D01*
X10879586Y-13500484D02*
X10879586Y-13367150D01*
X10879586Y-13386198D02*
X10889110Y-13376674D01*
X10889110Y-13376674D02*
X10908158Y-13367150D01*
X10908158Y-13367150D02*
X10936729Y-13367150D01*
X10936729Y-13367150D02*
X10955777Y-13376674D01*
X10955777Y-13376674D02*
X10965301Y-13395722D01*
X10965301Y-13395722D02*
X10965301Y-13500484D01*
X10965301Y-13395722D02*
X10974825Y-13376674D01*
X10974825Y-13376674D02*
X10993872Y-13367150D01*
X10993872Y-13367150D02*
X11022444Y-13367150D01*
X11022444Y-13367150D02*
X11041491Y-13376674D01*
X11041491Y-13376674D02*
X11051015Y-13395722D01*
X11051015Y-13395722D02*
X11051015Y-13500484D01*
X11441491Y-13290960D02*
X11270063Y-13548103D01*
X11698634Y-13300484D02*
X11717682Y-13300484D01*
X11717682Y-13300484D02*
X11736729Y-13310008D01*
X11736729Y-13310008D02*
X11746253Y-13319531D01*
X11746253Y-13319531D02*
X11755777Y-13338579D01*
X11755777Y-13338579D02*
X11765301Y-13376674D01*
X11765301Y-13376674D02*
X11765301Y-13424293D01*
X11765301Y-13424293D02*
X11755777Y-13462388D01*
X11755777Y-13462388D02*
X11746253Y-13481436D01*
X11746253Y-13481436D02*
X11736729Y-13490960D01*
X11736729Y-13490960D02*
X11717682Y-13500484D01*
X11717682Y-13500484D02*
X11698634Y-13500484D01*
X11698634Y-13500484D02*
X11679586Y-13490960D01*
X11679586Y-13490960D02*
X11670063Y-13481436D01*
X11670063Y-13481436D02*
X11660539Y-13462388D01*
X11660539Y-13462388D02*
X11651015Y-13424293D01*
X11651015Y-13424293D02*
X11651015Y-13376674D01*
X11651015Y-13376674D02*
X11660539Y-13338579D01*
X11660539Y-13338579D02*
X11670063Y-13319531D01*
X11670063Y-13319531D02*
X11679586Y-13310008D01*
X11679586Y-13310008D02*
X11698634Y-13300484D01*
X11851015Y-13481436D02*
X11860539Y-13490960D01*
X11860539Y-13490960D02*
X11851015Y-13500484D01*
X11851015Y-13500484D02*
X11841491Y-13490960D01*
X11841491Y-13490960D02*
X11851015Y-13481436D01*
X11851015Y-13481436D02*
X11851015Y-13500484D01*
X11984348Y-13300484D02*
X12003396Y-13300484D01*
X12003396Y-13300484D02*
X12022444Y-13310008D01*
X12022444Y-13310008D02*
X12031967Y-13319531D01*
X12031967Y-13319531D02*
X12041491Y-13338579D01*
X12041491Y-13338579D02*
X12051015Y-13376674D01*
X12051015Y-13376674D02*
X12051015Y-13424293D01*
X12051015Y-13424293D02*
X12041491Y-13462388D01*
X12041491Y-13462388D02*
X12031967Y-13481436D01*
X12031967Y-13481436D02*
X12022444Y-13490960D01*
X12022444Y-13490960D02*
X12003396Y-13500484D01*
X12003396Y-13500484D02*
X11984348Y-13500484D01*
X11984348Y-13500484D02*
X11965301Y-13490960D01*
X11965301Y-13490960D02*
X11955777Y-13481436D01*
X11955777Y-13481436D02*
X11946253Y-13462388D01*
X11946253Y-13462388D02*
X11936729Y-13424293D01*
X11936729Y-13424293D02*
X11936729Y-13376674D01*
X11936729Y-13376674D02*
X11946253Y-13338579D01*
X11946253Y-13338579D02*
X11955777Y-13319531D01*
X11955777Y-13319531D02*
X11965301Y-13310008D01*
X11965301Y-13310008D02*
X11984348Y-13300484D01*
X12127206Y-13319531D02*
X12136729Y-13310008D01*
X12136729Y-13310008D02*
X12155777Y-13300484D01*
X12155777Y-13300484D02*
X12203396Y-13300484D01*
X12203396Y-13300484D02*
X12222444Y-13310008D01*
X12222444Y-13310008D02*
X12231967Y-13319531D01*
X12231967Y-13319531D02*
X12241491Y-13338579D01*
X12241491Y-13338579D02*
X12241491Y-13357627D01*
X12241491Y-13357627D02*
X12231967Y-13386198D01*
X12231967Y-13386198D02*
X12117682Y-13500484D01*
X12117682Y-13500484D02*
X12241491Y-13500484D01*
X12336729Y-13500484D02*
X12374825Y-13500484D01*
X12374825Y-13500484D02*
X12393872Y-13490960D01*
X12393872Y-13490960D02*
X12403396Y-13481436D01*
X12403396Y-13481436D02*
X12422444Y-13452865D01*
X12422444Y-13452865D02*
X12431967Y-13414769D01*
X12431967Y-13414769D02*
X12431967Y-13338579D01*
X12431967Y-13338579D02*
X12422444Y-13319531D01*
X12422444Y-13319531D02*
X12412920Y-13310008D01*
X12412920Y-13310008D02*
X12393872Y-13300484D01*
X12393872Y-13300484D02*
X12355777Y-13300484D01*
X12355777Y-13300484D02*
X12336729Y-13310008D01*
X12336729Y-13310008D02*
X12327206Y-13319531D01*
X12327206Y-13319531D02*
X12317682Y-13338579D01*
X12317682Y-13338579D02*
X12317682Y-13386198D01*
X12317682Y-13386198D02*
X12327206Y-13405246D01*
X12327206Y-13405246D02*
X12336729Y-13414769D01*
X12336729Y-13414769D02*
X12355777Y-13424293D01*
X12355777Y-13424293D02*
X12393872Y-13424293D01*
X12393872Y-13424293D02*
X12412920Y-13414769D01*
X12412920Y-13414769D02*
X12422444Y-13405246D01*
X12422444Y-13405246D02*
X12431967Y-13386198D01*
X12612920Y-13300484D02*
X12517682Y-13300484D01*
X12517682Y-13300484D02*
X12508158Y-13395722D01*
X12508158Y-13395722D02*
X12517682Y-13386198D01*
X12517682Y-13386198D02*
X12536729Y-13376674D01*
X12536729Y-13376674D02*
X12584348Y-13376674D01*
X12584348Y-13376674D02*
X12603396Y-13386198D01*
X12603396Y-13386198D02*
X12612920Y-13395722D01*
X12612920Y-13395722D02*
X12622444Y-13414769D01*
X12622444Y-13414769D02*
X12622444Y-13462388D01*
X12622444Y-13462388D02*
X12612920Y-13481436D01*
X12612920Y-13481436D02*
X12603396Y-13490960D01*
X12603396Y-13490960D02*
X12584348Y-13500484D01*
X12584348Y-13500484D02*
X12536729Y-13500484D01*
X12536729Y-13500484D02*
X12517682Y-13490960D01*
X12517682Y-13490960D02*
X12508158Y-13481436D01*
X12698634Y-13300484D02*
X12698634Y-13338579D01*
X12774825Y-13300484D02*
X12774825Y-13338579D01*
X13070063Y-13576674D02*
X13060539Y-13567150D01*
X13060539Y-13567150D02*
X13041491Y-13538579D01*
X13041491Y-13538579D02*
X13031968Y-13519531D01*
X13031968Y-13519531D02*
X13022444Y-13490960D01*
X13022444Y-13490960D02*
X13012920Y-13443341D01*
X13012920Y-13443341D02*
X13012920Y-13405246D01*
X13012920Y-13405246D02*
X13022444Y-13357627D01*
X13022444Y-13357627D02*
X13031968Y-13329055D01*
X13031968Y-13329055D02*
X13041491Y-13310008D01*
X13041491Y-13310008D02*
X13060539Y-13281436D01*
X13060539Y-13281436D02*
X13070063Y-13271912D01*
X13127206Y-13300484D02*
X13251015Y-13300484D01*
X13251015Y-13300484D02*
X13184348Y-13376674D01*
X13184348Y-13376674D02*
X13212920Y-13376674D01*
X13212920Y-13376674D02*
X13231968Y-13386198D01*
X13231968Y-13386198D02*
X13241491Y-13395722D01*
X13241491Y-13395722D02*
X13251015Y-13414769D01*
X13251015Y-13414769D02*
X13251015Y-13462388D01*
X13251015Y-13462388D02*
X13241491Y-13481436D01*
X13241491Y-13481436D02*
X13231968Y-13490960D01*
X13231968Y-13490960D02*
X13212920Y-13500484D01*
X13212920Y-13500484D02*
X13155777Y-13500484D01*
X13155777Y-13500484D02*
X13136729Y-13490960D01*
X13136729Y-13490960D02*
X13127206Y-13481436D01*
X13489110Y-13500484D02*
X13489110Y-13300484D01*
X13574825Y-13500484D02*
X13574825Y-13395722D01*
X13574825Y-13395722D02*
X13565301Y-13376674D01*
X13565301Y-13376674D02*
X13546253Y-13367150D01*
X13546253Y-13367150D02*
X13517682Y-13367150D01*
X13517682Y-13367150D02*
X13498634Y-13376674D01*
X13498634Y-13376674D02*
X13489110Y-13386198D01*
X13698634Y-13500484D02*
X13679587Y-13490960D01*
X13679587Y-13490960D02*
X13670063Y-13481436D01*
X13670063Y-13481436D02*
X13660539Y-13462388D01*
X13660539Y-13462388D02*
X13660539Y-13405246D01*
X13660539Y-13405246D02*
X13670063Y-13386198D01*
X13670063Y-13386198D02*
X13679587Y-13376674D01*
X13679587Y-13376674D02*
X13698634Y-13367150D01*
X13698634Y-13367150D02*
X13727206Y-13367150D01*
X13727206Y-13367150D02*
X13746253Y-13376674D01*
X13746253Y-13376674D02*
X13755777Y-13386198D01*
X13755777Y-13386198D02*
X13765301Y-13405246D01*
X13765301Y-13405246D02*
X13765301Y-13462388D01*
X13765301Y-13462388D02*
X13755777Y-13481436D01*
X13755777Y-13481436D02*
X13746253Y-13490960D01*
X13746253Y-13490960D02*
X13727206Y-13500484D01*
X13727206Y-13500484D02*
X13698634Y-13500484D01*
X13879587Y-13500484D02*
X13860539Y-13490960D01*
X13860539Y-13490960D02*
X13851015Y-13471912D01*
X13851015Y-13471912D02*
X13851015Y-13300484D01*
X14031968Y-13490960D02*
X14012920Y-13500484D01*
X14012920Y-13500484D02*
X13974825Y-13500484D01*
X13974825Y-13500484D02*
X13955777Y-13490960D01*
X13955777Y-13490960D02*
X13946253Y-13471912D01*
X13946253Y-13471912D02*
X13946253Y-13395722D01*
X13946253Y-13395722D02*
X13955777Y-13376674D01*
X13955777Y-13376674D02*
X13974825Y-13367150D01*
X13974825Y-13367150D02*
X14012920Y-13367150D01*
X14012920Y-13367150D02*
X14031968Y-13376674D01*
X14031968Y-13376674D02*
X14041491Y-13395722D01*
X14041491Y-13395722D02*
X14041491Y-13414769D01*
X14041491Y-13414769D02*
X13946253Y-13433817D01*
X14117682Y-13490960D02*
X14136730Y-13500484D01*
X14136730Y-13500484D02*
X14174825Y-13500484D01*
X14174825Y-13500484D02*
X14193872Y-13490960D01*
X14193872Y-13490960D02*
X14203396Y-13471912D01*
X14203396Y-13471912D02*
X14203396Y-13462388D01*
X14203396Y-13462388D02*
X14193872Y-13443341D01*
X14193872Y-13443341D02*
X14174825Y-13433817D01*
X14174825Y-13433817D02*
X14146253Y-13433817D01*
X14146253Y-13433817D02*
X14127206Y-13424293D01*
X14127206Y-13424293D02*
X14117682Y-13405246D01*
X14117682Y-13405246D02*
X14117682Y-13395722D01*
X14117682Y-13395722D02*
X14127206Y-13376674D01*
X14127206Y-13376674D02*
X14146253Y-13367150D01*
X14146253Y-13367150D02*
X14174825Y-13367150D01*
X14174825Y-13367150D02*
X14193872Y-13376674D01*
X14270063Y-13576674D02*
X14279587Y-13567150D01*
X14279587Y-13567150D02*
X14298634Y-13538579D01*
X14298634Y-13538579D02*
X14308158Y-13519531D01*
X14308158Y-13519531D02*
X14317682Y-13490960D01*
X14317682Y-13490960D02*
X14327206Y-13443341D01*
X14327206Y-13443341D02*
X14327206Y-13405246D01*
X14327206Y-13405246D02*
X14317682Y-13357627D01*
X14317682Y-13357627D02*
X14308158Y-13329055D01*
X14308158Y-13329055D02*
X14298634Y-13310008D01*
X14298634Y-13310008D02*
X14279587Y-13281436D01*
X14279587Y-13281436D02*
X14270063Y-13271912D01*
D14*
X9455000Y-13633000D02*
X9455000Y-13713000D01*
X9415000Y-13673000D02*
X9495000Y-13673000D01*
D11*
X9793872Y-13564484D02*
X9812920Y-13564484D01*
X9812920Y-13564484D02*
X9831967Y-13574008D01*
X9831967Y-13574008D02*
X9841491Y-13583531D01*
X9841491Y-13583531D02*
X9851015Y-13602579D01*
X9851015Y-13602579D02*
X9860539Y-13640674D01*
X9860539Y-13640674D02*
X9860539Y-13688293D01*
X9860539Y-13688293D02*
X9851015Y-13726388D01*
X9851015Y-13726388D02*
X9841491Y-13745436D01*
X9841491Y-13745436D02*
X9831967Y-13754960D01*
X9831967Y-13754960D02*
X9812920Y-13764484D01*
X9812920Y-13764484D02*
X9793872Y-13764484D01*
X9793872Y-13764484D02*
X9774824Y-13754960D01*
X9774824Y-13754960D02*
X9765301Y-13745436D01*
X9765301Y-13745436D02*
X9755777Y-13726388D01*
X9755777Y-13726388D02*
X9746253Y-13688293D01*
X9746253Y-13688293D02*
X9746253Y-13640674D01*
X9746253Y-13640674D02*
X9755777Y-13602579D01*
X9755777Y-13602579D02*
X9765301Y-13583531D01*
X9765301Y-13583531D02*
X9774824Y-13574008D01*
X9774824Y-13574008D02*
X9793872Y-13564484D01*
X9946253Y-13745436D02*
X9955777Y-13754960D01*
X9955777Y-13754960D02*
X9946253Y-13764484D01*
X9946253Y-13764484D02*
X9936729Y-13754960D01*
X9936729Y-13754960D02*
X9946253Y-13745436D01*
X9946253Y-13745436D02*
X9946253Y-13764484D01*
X10070063Y-13650198D02*
X10051015Y-13640674D01*
X10051015Y-13640674D02*
X10041491Y-13631150D01*
X10041491Y-13631150D02*
X10031967Y-13612103D01*
X10031967Y-13612103D02*
X10031967Y-13602579D01*
X10031967Y-13602579D02*
X10041491Y-13583531D01*
X10041491Y-13583531D02*
X10051015Y-13574008D01*
X10051015Y-13574008D02*
X10070063Y-13564484D01*
X10070063Y-13564484D02*
X10108158Y-13564484D01*
X10108158Y-13564484D02*
X10127205Y-13574008D01*
X10127205Y-13574008D02*
X10136729Y-13583531D01*
X10136729Y-13583531D02*
X10146253Y-13602579D01*
X10146253Y-13602579D02*
X10146253Y-13612103D01*
X10146253Y-13612103D02*
X10136729Y-13631150D01*
X10136729Y-13631150D02*
X10127205Y-13640674D01*
X10127205Y-13640674D02*
X10108158Y-13650198D01*
X10108158Y-13650198D02*
X10070063Y-13650198D01*
X10070063Y-13650198D02*
X10051015Y-13659722D01*
X10051015Y-13659722D02*
X10041491Y-13669246D01*
X10041491Y-13669246D02*
X10031967Y-13688293D01*
X10031967Y-13688293D02*
X10031967Y-13726388D01*
X10031967Y-13726388D02*
X10041491Y-13745436D01*
X10041491Y-13745436D02*
X10051015Y-13754960D01*
X10051015Y-13754960D02*
X10070063Y-13764484D01*
X10070063Y-13764484D02*
X10108158Y-13764484D01*
X10108158Y-13764484D02*
X10127205Y-13754960D01*
X10127205Y-13754960D02*
X10136729Y-13745436D01*
X10136729Y-13745436D02*
X10146253Y-13726388D01*
X10146253Y-13726388D02*
X10146253Y-13688293D01*
X10146253Y-13688293D02*
X10136729Y-13669246D01*
X10136729Y-13669246D02*
X10127205Y-13659722D01*
X10127205Y-13659722D02*
X10108158Y-13650198D01*
X10270063Y-13564484D02*
X10289110Y-13564484D01*
X10289110Y-13564484D02*
X10308158Y-13574008D01*
X10308158Y-13574008D02*
X10317682Y-13583531D01*
X10317682Y-13583531D02*
X10327205Y-13602579D01*
X10327205Y-13602579D02*
X10336729Y-13640674D01*
X10336729Y-13640674D02*
X10336729Y-13688293D01*
X10336729Y-13688293D02*
X10327205Y-13726388D01*
X10327205Y-13726388D02*
X10317682Y-13745436D01*
X10317682Y-13745436D02*
X10308158Y-13754960D01*
X10308158Y-13754960D02*
X10289110Y-13764484D01*
X10289110Y-13764484D02*
X10270063Y-13764484D01*
X10270063Y-13764484D02*
X10251015Y-13754960D01*
X10251015Y-13754960D02*
X10241491Y-13745436D01*
X10241491Y-13745436D02*
X10231967Y-13726388D01*
X10231967Y-13726388D02*
X10222444Y-13688293D01*
X10222444Y-13688293D02*
X10222444Y-13640674D01*
X10222444Y-13640674D02*
X10231967Y-13602579D01*
X10231967Y-13602579D02*
X10241491Y-13583531D01*
X10241491Y-13583531D02*
X10251015Y-13574008D01*
X10251015Y-13574008D02*
X10270063Y-13564484D01*
X10460539Y-13564484D02*
X10479586Y-13564484D01*
X10479586Y-13564484D02*
X10498634Y-13574008D01*
X10498634Y-13574008D02*
X10508158Y-13583531D01*
X10508158Y-13583531D02*
X10517682Y-13602579D01*
X10517682Y-13602579D02*
X10527205Y-13640674D01*
X10527205Y-13640674D02*
X10527205Y-13688293D01*
X10527205Y-13688293D02*
X10517682Y-13726388D01*
X10517682Y-13726388D02*
X10508158Y-13745436D01*
X10508158Y-13745436D02*
X10498634Y-13754960D01*
X10498634Y-13754960D02*
X10479586Y-13764484D01*
X10479586Y-13764484D02*
X10460539Y-13764484D01*
X10460539Y-13764484D02*
X10441491Y-13754960D01*
X10441491Y-13754960D02*
X10431967Y-13745436D01*
X10431967Y-13745436D02*
X10422444Y-13726388D01*
X10422444Y-13726388D02*
X10412920Y-13688293D01*
X10412920Y-13688293D02*
X10412920Y-13640674D01*
X10412920Y-13640674D02*
X10422444Y-13602579D01*
X10422444Y-13602579D02*
X10431967Y-13583531D01*
X10431967Y-13583531D02*
X10441491Y-13574008D01*
X10441491Y-13574008D02*
X10460539Y-13564484D01*
X10612920Y-13764484D02*
X10612920Y-13631150D01*
X10612920Y-13650198D02*
X10622444Y-13640674D01*
X10622444Y-13640674D02*
X10641491Y-13631150D01*
X10641491Y-13631150D02*
X10670063Y-13631150D01*
X10670063Y-13631150D02*
X10689110Y-13640674D01*
X10689110Y-13640674D02*
X10698634Y-13659722D01*
X10698634Y-13659722D02*
X10698634Y-13764484D01*
X10698634Y-13659722D02*
X10708158Y-13640674D01*
X10708158Y-13640674D02*
X10727205Y-13631150D01*
X10727205Y-13631150D02*
X10755777Y-13631150D01*
X10755777Y-13631150D02*
X10774825Y-13640674D01*
X10774825Y-13640674D02*
X10784348Y-13659722D01*
X10784348Y-13659722D02*
X10784348Y-13764484D01*
X10879586Y-13764484D02*
X10879586Y-13631150D01*
X10879586Y-13650198D02*
X10889110Y-13640674D01*
X10889110Y-13640674D02*
X10908158Y-13631150D01*
X10908158Y-13631150D02*
X10936729Y-13631150D01*
X10936729Y-13631150D02*
X10955777Y-13640674D01*
X10955777Y-13640674D02*
X10965301Y-13659722D01*
X10965301Y-13659722D02*
X10965301Y-13764484D01*
X10965301Y-13659722D02*
X10974825Y-13640674D01*
X10974825Y-13640674D02*
X10993872Y-13631150D01*
X10993872Y-13631150D02*
X11022444Y-13631150D01*
X11022444Y-13631150D02*
X11041491Y-13640674D01*
X11041491Y-13640674D02*
X11051015Y-13659722D01*
X11051015Y-13659722D02*
X11051015Y-13764484D01*
X11441491Y-13554960D02*
X11270063Y-13812103D01*
X11698634Y-13564484D02*
X11717682Y-13564484D01*
X11717682Y-13564484D02*
X11736729Y-13574008D01*
X11736729Y-13574008D02*
X11746253Y-13583531D01*
X11746253Y-13583531D02*
X11755777Y-13602579D01*
X11755777Y-13602579D02*
X11765301Y-13640674D01*
X11765301Y-13640674D02*
X11765301Y-13688293D01*
X11765301Y-13688293D02*
X11755777Y-13726388D01*
X11755777Y-13726388D02*
X11746253Y-13745436D01*
X11746253Y-13745436D02*
X11736729Y-13754960D01*
X11736729Y-13754960D02*
X11717682Y-13764484D01*
X11717682Y-13764484D02*
X11698634Y-13764484D01*
X11698634Y-13764484D02*
X11679586Y-13754960D01*
X11679586Y-13754960D02*
X11670063Y-13745436D01*
X11670063Y-13745436D02*
X11660539Y-13726388D01*
X11660539Y-13726388D02*
X11651015Y-13688293D01*
X11651015Y-13688293D02*
X11651015Y-13640674D01*
X11651015Y-13640674D02*
X11660539Y-13602579D01*
X11660539Y-13602579D02*
X11670063Y-13583531D01*
X11670063Y-13583531D02*
X11679586Y-13574008D01*
X11679586Y-13574008D02*
X11698634Y-13564484D01*
X11851015Y-13745436D02*
X11860539Y-13754960D01*
X11860539Y-13754960D02*
X11851015Y-13764484D01*
X11851015Y-13764484D02*
X11841491Y-13754960D01*
X11841491Y-13754960D02*
X11851015Y-13745436D01*
X11851015Y-13745436D02*
X11851015Y-13764484D01*
X11984348Y-13564484D02*
X12003396Y-13564484D01*
X12003396Y-13564484D02*
X12022444Y-13574008D01*
X12022444Y-13574008D02*
X12031967Y-13583531D01*
X12031967Y-13583531D02*
X12041491Y-13602579D01*
X12041491Y-13602579D02*
X12051015Y-13640674D01*
X12051015Y-13640674D02*
X12051015Y-13688293D01*
X12051015Y-13688293D02*
X12041491Y-13726388D01*
X12041491Y-13726388D02*
X12031967Y-13745436D01*
X12031967Y-13745436D02*
X12022444Y-13754960D01*
X12022444Y-13754960D02*
X12003396Y-13764484D01*
X12003396Y-13764484D02*
X11984348Y-13764484D01*
X11984348Y-13764484D02*
X11965301Y-13754960D01*
X11965301Y-13754960D02*
X11955777Y-13745436D01*
X11955777Y-13745436D02*
X11946253Y-13726388D01*
X11946253Y-13726388D02*
X11936729Y-13688293D01*
X11936729Y-13688293D02*
X11936729Y-13640674D01*
X11936729Y-13640674D02*
X11946253Y-13602579D01*
X11946253Y-13602579D02*
X11955777Y-13583531D01*
X11955777Y-13583531D02*
X11965301Y-13574008D01*
X11965301Y-13574008D02*
X11984348Y-13564484D01*
X12117682Y-13564484D02*
X12241491Y-13564484D01*
X12241491Y-13564484D02*
X12174825Y-13640674D01*
X12174825Y-13640674D02*
X12203396Y-13640674D01*
X12203396Y-13640674D02*
X12222444Y-13650198D01*
X12222444Y-13650198D02*
X12231967Y-13659722D01*
X12231967Y-13659722D02*
X12241491Y-13678769D01*
X12241491Y-13678769D02*
X12241491Y-13726388D01*
X12241491Y-13726388D02*
X12231967Y-13745436D01*
X12231967Y-13745436D02*
X12222444Y-13754960D01*
X12222444Y-13754960D02*
X12203396Y-13764484D01*
X12203396Y-13764484D02*
X12146253Y-13764484D01*
X12146253Y-13764484D02*
X12127206Y-13754960D01*
X12127206Y-13754960D02*
X12117682Y-13745436D01*
X12431967Y-13764484D02*
X12317682Y-13764484D01*
X12374825Y-13764484D02*
X12374825Y-13564484D01*
X12374825Y-13564484D02*
X12355777Y-13593055D01*
X12355777Y-13593055D02*
X12336729Y-13612103D01*
X12336729Y-13612103D02*
X12317682Y-13621627D01*
X12612920Y-13564484D02*
X12517682Y-13564484D01*
X12517682Y-13564484D02*
X12508158Y-13659722D01*
X12508158Y-13659722D02*
X12517682Y-13650198D01*
X12517682Y-13650198D02*
X12536729Y-13640674D01*
X12536729Y-13640674D02*
X12584348Y-13640674D01*
X12584348Y-13640674D02*
X12603396Y-13650198D01*
X12603396Y-13650198D02*
X12612920Y-13659722D01*
X12612920Y-13659722D02*
X12622444Y-13678769D01*
X12622444Y-13678769D02*
X12622444Y-13726388D01*
X12622444Y-13726388D02*
X12612920Y-13745436D01*
X12612920Y-13745436D02*
X12603396Y-13754960D01*
X12603396Y-13754960D02*
X12584348Y-13764484D01*
X12584348Y-13764484D02*
X12536729Y-13764484D01*
X12536729Y-13764484D02*
X12517682Y-13754960D01*
X12517682Y-13754960D02*
X12508158Y-13745436D01*
X12698634Y-13564484D02*
X12698634Y-13602579D01*
X12774825Y-13564484D02*
X12774825Y-13602579D01*
X13070063Y-13840674D02*
X13060539Y-13831150D01*
X13060539Y-13831150D02*
X13041491Y-13802579D01*
X13041491Y-13802579D02*
X13031968Y-13783531D01*
X13031968Y-13783531D02*
X13022444Y-13754960D01*
X13022444Y-13754960D02*
X13012920Y-13707341D01*
X13012920Y-13707341D02*
X13012920Y-13669246D01*
X13012920Y-13669246D02*
X13022444Y-13621627D01*
X13022444Y-13621627D02*
X13031968Y-13593055D01*
X13031968Y-13593055D02*
X13041491Y-13574008D01*
X13041491Y-13574008D02*
X13060539Y-13545436D01*
X13060539Y-13545436D02*
X13070063Y-13535912D01*
X13251015Y-13764484D02*
X13136729Y-13764484D01*
X13193872Y-13764484D02*
X13193872Y-13564484D01*
X13193872Y-13564484D02*
X13174825Y-13593055D01*
X13174825Y-13593055D02*
X13155777Y-13612103D01*
X13155777Y-13612103D02*
X13136729Y-13621627D01*
X13422444Y-13631150D02*
X13422444Y-13764484D01*
X13374825Y-13554960D02*
X13327206Y-13697817D01*
X13327206Y-13697817D02*
X13451015Y-13697817D01*
X13679587Y-13764484D02*
X13679587Y-13564484D01*
X13765301Y-13764484D02*
X13765301Y-13659722D01*
X13765301Y-13659722D02*
X13755777Y-13640674D01*
X13755777Y-13640674D02*
X13736730Y-13631150D01*
X13736730Y-13631150D02*
X13708158Y-13631150D01*
X13708158Y-13631150D02*
X13689110Y-13640674D01*
X13689110Y-13640674D02*
X13679587Y-13650198D01*
X13889110Y-13764484D02*
X13870063Y-13754960D01*
X13870063Y-13754960D02*
X13860539Y-13745436D01*
X13860539Y-13745436D02*
X13851015Y-13726388D01*
X13851015Y-13726388D02*
X13851015Y-13669246D01*
X13851015Y-13669246D02*
X13860539Y-13650198D01*
X13860539Y-13650198D02*
X13870063Y-13640674D01*
X13870063Y-13640674D02*
X13889110Y-13631150D01*
X13889110Y-13631150D02*
X13917682Y-13631150D01*
X13917682Y-13631150D02*
X13936730Y-13640674D01*
X13936730Y-13640674D02*
X13946253Y-13650198D01*
X13946253Y-13650198D02*
X13955777Y-13669246D01*
X13955777Y-13669246D02*
X13955777Y-13726388D01*
X13955777Y-13726388D02*
X13946253Y-13745436D01*
X13946253Y-13745436D02*
X13936730Y-13754960D01*
X13936730Y-13754960D02*
X13917682Y-13764484D01*
X13917682Y-13764484D02*
X13889110Y-13764484D01*
X14070063Y-13764484D02*
X14051015Y-13754960D01*
X14051015Y-13754960D02*
X14041491Y-13735912D01*
X14041491Y-13735912D02*
X14041491Y-13564484D01*
X14222444Y-13754960D02*
X14203396Y-13764484D01*
X14203396Y-13764484D02*
X14165301Y-13764484D01*
X14165301Y-13764484D02*
X14146253Y-13754960D01*
X14146253Y-13754960D02*
X14136730Y-13735912D01*
X14136730Y-13735912D02*
X14136730Y-13659722D01*
X14136730Y-13659722D02*
X14146253Y-13640674D01*
X14146253Y-13640674D02*
X14165301Y-13631150D01*
X14165301Y-13631150D02*
X14203396Y-13631150D01*
X14203396Y-13631150D02*
X14222444Y-13640674D01*
X14222444Y-13640674D02*
X14231968Y-13659722D01*
X14231968Y-13659722D02*
X14231968Y-13678769D01*
X14231968Y-13678769D02*
X14136730Y-13697817D01*
X14308158Y-13754960D02*
X14327206Y-13764484D01*
X14327206Y-13764484D02*
X14365301Y-13764484D01*
X14365301Y-13764484D02*
X14384349Y-13754960D01*
X14384349Y-13754960D02*
X14393872Y-13735912D01*
X14393872Y-13735912D02*
X14393872Y-13726388D01*
X14393872Y-13726388D02*
X14384349Y-13707341D01*
X14384349Y-13707341D02*
X14365301Y-13697817D01*
X14365301Y-13697817D02*
X14336730Y-13697817D01*
X14336730Y-13697817D02*
X14317682Y-13688293D01*
X14317682Y-13688293D02*
X14308158Y-13669246D01*
X14308158Y-13669246D02*
X14308158Y-13659722D01*
X14308158Y-13659722D02*
X14317682Y-13640674D01*
X14317682Y-13640674D02*
X14336730Y-13631150D01*
X14336730Y-13631150D02*
X14365301Y-13631150D01*
X14365301Y-13631150D02*
X14384349Y-13640674D01*
X14460539Y-13840674D02*
X14470063Y-13831150D01*
X14470063Y-13831150D02*
X14489111Y-13802579D01*
X14489111Y-13802579D02*
X14498634Y-13783531D01*
X14498634Y-13783531D02*
X14508158Y-13754960D01*
X14508158Y-13754960D02*
X14517682Y-13707341D01*
X14517682Y-13707341D02*
X14517682Y-13669246D01*
X14517682Y-13669246D02*
X14508158Y-13621627D01*
X14508158Y-13621627D02*
X14498634Y-13593055D01*
X14498634Y-13593055D02*
X14489111Y-13574008D01*
X14489111Y-13574008D02*
X14470063Y-13545436D01*
X14470063Y-13545436D02*
X14460539Y-13535912D01*
D10*
X9480356Y-13972356D02*
X9480356Y-13901644D01*
X9409644Y-13901644D01*
X9409644Y-13972356D01*
X9480356Y-13972356D01*
D11*
X9860539Y-14028484D02*
X9746253Y-14028484D01*
X9803396Y-14028484D02*
X9803396Y-13828484D01*
X9803396Y-13828484D02*
X9784348Y-13857055D01*
X9784348Y-13857055D02*
X9765301Y-13876103D01*
X9765301Y-13876103D02*
X9746253Y-13885627D01*
X9946253Y-14009436D02*
X9955777Y-14018960D01*
X9955777Y-14018960D02*
X9946253Y-14028484D01*
X9946253Y-14028484D02*
X9936729Y-14018960D01*
X9936729Y-14018960D02*
X9946253Y-14009436D01*
X9946253Y-14009436D02*
X9946253Y-14028484D01*
X10079586Y-13828484D02*
X10098634Y-13828484D01*
X10098634Y-13828484D02*
X10117682Y-13838008D01*
X10117682Y-13838008D02*
X10127205Y-13847531D01*
X10127205Y-13847531D02*
X10136729Y-13866579D01*
X10136729Y-13866579D02*
X10146253Y-13904674D01*
X10146253Y-13904674D02*
X10146253Y-13952293D01*
X10146253Y-13952293D02*
X10136729Y-13990388D01*
X10136729Y-13990388D02*
X10127205Y-14009436D01*
X10127205Y-14009436D02*
X10117682Y-14018960D01*
X10117682Y-14018960D02*
X10098634Y-14028484D01*
X10098634Y-14028484D02*
X10079586Y-14028484D01*
X10079586Y-14028484D02*
X10060539Y-14018960D01*
X10060539Y-14018960D02*
X10051015Y-14009436D01*
X10051015Y-14009436D02*
X10041491Y-13990388D01*
X10041491Y-13990388D02*
X10031967Y-13952293D01*
X10031967Y-13952293D02*
X10031967Y-13904674D01*
X10031967Y-13904674D02*
X10041491Y-13866579D01*
X10041491Y-13866579D02*
X10051015Y-13847531D01*
X10051015Y-13847531D02*
X10060539Y-13838008D01*
X10060539Y-13838008D02*
X10079586Y-13828484D01*
X10270063Y-13828484D02*
X10289110Y-13828484D01*
X10289110Y-13828484D02*
X10308158Y-13838008D01*
X10308158Y-13838008D02*
X10317682Y-13847531D01*
X10317682Y-13847531D02*
X10327205Y-13866579D01*
X10327205Y-13866579D02*
X10336729Y-13904674D01*
X10336729Y-13904674D02*
X10336729Y-13952293D01*
X10336729Y-13952293D02*
X10327205Y-13990388D01*
X10327205Y-13990388D02*
X10317682Y-14009436D01*
X10317682Y-14009436D02*
X10308158Y-14018960D01*
X10308158Y-14018960D02*
X10289110Y-14028484D01*
X10289110Y-14028484D02*
X10270063Y-14028484D01*
X10270063Y-14028484D02*
X10251015Y-14018960D01*
X10251015Y-14018960D02*
X10241491Y-14009436D01*
X10241491Y-14009436D02*
X10231967Y-13990388D01*
X10231967Y-13990388D02*
X10222444Y-13952293D01*
X10222444Y-13952293D02*
X10222444Y-13904674D01*
X10222444Y-13904674D02*
X10231967Y-13866579D01*
X10231967Y-13866579D02*
X10241491Y-13847531D01*
X10241491Y-13847531D02*
X10251015Y-13838008D01*
X10251015Y-13838008D02*
X10270063Y-13828484D01*
X10460539Y-13828484D02*
X10479586Y-13828484D01*
X10479586Y-13828484D02*
X10498634Y-13838008D01*
X10498634Y-13838008D02*
X10508158Y-13847531D01*
X10508158Y-13847531D02*
X10517682Y-13866579D01*
X10517682Y-13866579D02*
X10527205Y-13904674D01*
X10527205Y-13904674D02*
X10527205Y-13952293D01*
X10527205Y-13952293D02*
X10517682Y-13990388D01*
X10517682Y-13990388D02*
X10508158Y-14009436D01*
X10508158Y-14009436D02*
X10498634Y-14018960D01*
X10498634Y-14018960D02*
X10479586Y-14028484D01*
X10479586Y-14028484D02*
X10460539Y-14028484D01*
X10460539Y-14028484D02*
X10441491Y-14018960D01*
X10441491Y-14018960D02*
X10431967Y-14009436D01*
X10431967Y-14009436D02*
X10422444Y-13990388D01*
X10422444Y-13990388D02*
X10412920Y-13952293D01*
X10412920Y-13952293D02*
X10412920Y-13904674D01*
X10412920Y-13904674D02*
X10422444Y-13866579D01*
X10422444Y-13866579D02*
X10431967Y-13847531D01*
X10431967Y-13847531D02*
X10441491Y-13838008D01*
X10441491Y-13838008D02*
X10460539Y-13828484D01*
X10612920Y-14028484D02*
X10612920Y-13895150D01*
X10612920Y-13914198D02*
X10622444Y-13904674D01*
X10622444Y-13904674D02*
X10641491Y-13895150D01*
X10641491Y-13895150D02*
X10670063Y-13895150D01*
X10670063Y-13895150D02*
X10689110Y-13904674D01*
X10689110Y-13904674D02*
X10698634Y-13923722D01*
X10698634Y-13923722D02*
X10698634Y-14028484D01*
X10698634Y-13923722D02*
X10708158Y-13904674D01*
X10708158Y-13904674D02*
X10727205Y-13895150D01*
X10727205Y-13895150D02*
X10755777Y-13895150D01*
X10755777Y-13895150D02*
X10774825Y-13904674D01*
X10774825Y-13904674D02*
X10784348Y-13923722D01*
X10784348Y-13923722D02*
X10784348Y-14028484D01*
X10879586Y-14028484D02*
X10879586Y-13895150D01*
X10879586Y-13914198D02*
X10889110Y-13904674D01*
X10889110Y-13904674D02*
X10908158Y-13895150D01*
X10908158Y-13895150D02*
X10936729Y-13895150D01*
X10936729Y-13895150D02*
X10955777Y-13904674D01*
X10955777Y-13904674D02*
X10965301Y-13923722D01*
X10965301Y-13923722D02*
X10965301Y-14028484D01*
X10965301Y-13923722D02*
X10974825Y-13904674D01*
X10974825Y-13904674D02*
X10993872Y-13895150D01*
X10993872Y-13895150D02*
X11022444Y-13895150D01*
X11022444Y-13895150D02*
X11041491Y-13904674D01*
X11041491Y-13904674D02*
X11051015Y-13923722D01*
X11051015Y-13923722D02*
X11051015Y-14028484D01*
X11441491Y-13818960D02*
X11270063Y-14076103D01*
X11698634Y-13828484D02*
X11717682Y-13828484D01*
X11717682Y-13828484D02*
X11736729Y-13838008D01*
X11736729Y-13838008D02*
X11746253Y-13847531D01*
X11746253Y-13847531D02*
X11755777Y-13866579D01*
X11755777Y-13866579D02*
X11765301Y-13904674D01*
X11765301Y-13904674D02*
X11765301Y-13952293D01*
X11765301Y-13952293D02*
X11755777Y-13990388D01*
X11755777Y-13990388D02*
X11746253Y-14009436D01*
X11746253Y-14009436D02*
X11736729Y-14018960D01*
X11736729Y-14018960D02*
X11717682Y-14028484D01*
X11717682Y-14028484D02*
X11698634Y-14028484D01*
X11698634Y-14028484D02*
X11679586Y-14018960D01*
X11679586Y-14018960D02*
X11670063Y-14009436D01*
X11670063Y-14009436D02*
X11660539Y-13990388D01*
X11660539Y-13990388D02*
X11651015Y-13952293D01*
X11651015Y-13952293D02*
X11651015Y-13904674D01*
X11651015Y-13904674D02*
X11660539Y-13866579D01*
X11660539Y-13866579D02*
X11670063Y-13847531D01*
X11670063Y-13847531D02*
X11679586Y-13838008D01*
X11679586Y-13838008D02*
X11698634Y-13828484D01*
X11851015Y-14009436D02*
X11860539Y-14018960D01*
X11860539Y-14018960D02*
X11851015Y-14028484D01*
X11851015Y-14028484D02*
X11841491Y-14018960D01*
X11841491Y-14018960D02*
X11851015Y-14009436D01*
X11851015Y-14009436D02*
X11851015Y-14028484D01*
X11984348Y-13828484D02*
X12003396Y-13828484D01*
X12003396Y-13828484D02*
X12022444Y-13838008D01*
X12022444Y-13838008D02*
X12031967Y-13847531D01*
X12031967Y-13847531D02*
X12041491Y-13866579D01*
X12041491Y-13866579D02*
X12051015Y-13904674D01*
X12051015Y-13904674D02*
X12051015Y-13952293D01*
X12051015Y-13952293D02*
X12041491Y-13990388D01*
X12041491Y-13990388D02*
X12031967Y-14009436D01*
X12031967Y-14009436D02*
X12022444Y-14018960D01*
X12022444Y-14018960D02*
X12003396Y-14028484D01*
X12003396Y-14028484D02*
X11984348Y-14028484D01*
X11984348Y-14028484D02*
X11965301Y-14018960D01*
X11965301Y-14018960D02*
X11955777Y-14009436D01*
X11955777Y-14009436D02*
X11946253Y-13990388D01*
X11946253Y-13990388D02*
X11936729Y-13952293D01*
X11936729Y-13952293D02*
X11936729Y-13904674D01*
X11936729Y-13904674D02*
X11946253Y-13866579D01*
X11946253Y-13866579D02*
X11955777Y-13847531D01*
X11955777Y-13847531D02*
X11965301Y-13838008D01*
X11965301Y-13838008D02*
X11984348Y-13828484D01*
X12117682Y-13828484D02*
X12241491Y-13828484D01*
X12241491Y-13828484D02*
X12174825Y-13904674D01*
X12174825Y-13904674D02*
X12203396Y-13904674D01*
X12203396Y-13904674D02*
X12222444Y-13914198D01*
X12222444Y-13914198D02*
X12231967Y-13923722D01*
X12231967Y-13923722D02*
X12241491Y-13942769D01*
X12241491Y-13942769D02*
X12241491Y-13990388D01*
X12241491Y-13990388D02*
X12231967Y-14009436D01*
X12231967Y-14009436D02*
X12222444Y-14018960D01*
X12222444Y-14018960D02*
X12203396Y-14028484D01*
X12203396Y-14028484D02*
X12146253Y-14028484D01*
X12146253Y-14028484D02*
X12127206Y-14018960D01*
X12127206Y-14018960D02*
X12117682Y-14009436D01*
X12336729Y-14028484D02*
X12374825Y-14028484D01*
X12374825Y-14028484D02*
X12393872Y-14018960D01*
X12393872Y-14018960D02*
X12403396Y-14009436D01*
X12403396Y-14009436D02*
X12422444Y-13980865D01*
X12422444Y-13980865D02*
X12431967Y-13942769D01*
X12431967Y-13942769D02*
X12431967Y-13866579D01*
X12431967Y-13866579D02*
X12422444Y-13847531D01*
X12422444Y-13847531D02*
X12412920Y-13838008D01*
X12412920Y-13838008D02*
X12393872Y-13828484D01*
X12393872Y-13828484D02*
X12355777Y-13828484D01*
X12355777Y-13828484D02*
X12336729Y-13838008D01*
X12336729Y-13838008D02*
X12327206Y-13847531D01*
X12327206Y-13847531D02*
X12317682Y-13866579D01*
X12317682Y-13866579D02*
X12317682Y-13914198D01*
X12317682Y-13914198D02*
X12327206Y-13933246D01*
X12327206Y-13933246D02*
X12336729Y-13942769D01*
X12336729Y-13942769D02*
X12355777Y-13952293D01*
X12355777Y-13952293D02*
X12393872Y-13952293D01*
X12393872Y-13952293D02*
X12412920Y-13942769D01*
X12412920Y-13942769D02*
X12422444Y-13933246D01*
X12422444Y-13933246D02*
X12431967Y-13914198D01*
X12603396Y-13895150D02*
X12603396Y-14028484D01*
X12555777Y-13818960D02*
X12508158Y-13961817D01*
X12508158Y-13961817D02*
X12631967Y-13961817D01*
X12698634Y-13828484D02*
X12698634Y-13866579D01*
X12774825Y-13828484D02*
X12774825Y-13866579D01*
X13070063Y-14104674D02*
X13060539Y-14095150D01*
X13060539Y-14095150D02*
X13041491Y-14066579D01*
X13041491Y-14066579D02*
X13031968Y-14047531D01*
X13031968Y-14047531D02*
X13022444Y-14018960D01*
X13022444Y-14018960D02*
X13012920Y-13971341D01*
X13012920Y-13971341D02*
X13012920Y-13933246D01*
X13012920Y-13933246D02*
X13022444Y-13885627D01*
X13022444Y-13885627D02*
X13031968Y-13857055D01*
X13031968Y-13857055D02*
X13041491Y-13838008D01*
X13041491Y-13838008D02*
X13060539Y-13809436D01*
X13060539Y-13809436D02*
X13070063Y-13799912D01*
X13127206Y-13828484D02*
X13251015Y-13828484D01*
X13251015Y-13828484D02*
X13184348Y-13904674D01*
X13184348Y-13904674D02*
X13212920Y-13904674D01*
X13212920Y-13904674D02*
X13231968Y-13914198D01*
X13231968Y-13914198D02*
X13241491Y-13923722D01*
X13241491Y-13923722D02*
X13251015Y-13942769D01*
X13251015Y-13942769D02*
X13251015Y-13990388D01*
X13251015Y-13990388D02*
X13241491Y-14009436D01*
X13241491Y-14009436D02*
X13231968Y-14018960D01*
X13231968Y-14018960D02*
X13212920Y-14028484D01*
X13212920Y-14028484D02*
X13155777Y-14028484D01*
X13155777Y-14028484D02*
X13136729Y-14018960D01*
X13136729Y-14018960D02*
X13127206Y-14009436D01*
X13374825Y-13828484D02*
X13393872Y-13828484D01*
X13393872Y-13828484D02*
X13412920Y-13838008D01*
X13412920Y-13838008D02*
X13422444Y-13847531D01*
X13422444Y-13847531D02*
X13431968Y-13866579D01*
X13431968Y-13866579D02*
X13441491Y-13904674D01*
X13441491Y-13904674D02*
X13441491Y-13952293D01*
X13441491Y-13952293D02*
X13431968Y-13990388D01*
X13431968Y-13990388D02*
X13422444Y-14009436D01*
X13422444Y-14009436D02*
X13412920Y-14018960D01*
X13412920Y-14018960D02*
X13393872Y-14028484D01*
X13393872Y-14028484D02*
X13374825Y-14028484D01*
X13374825Y-14028484D02*
X13355777Y-14018960D01*
X13355777Y-14018960D02*
X13346253Y-14009436D01*
X13346253Y-14009436D02*
X13336729Y-13990388D01*
X13336729Y-13990388D02*
X13327206Y-13952293D01*
X13327206Y-13952293D02*
X13327206Y-13904674D01*
X13327206Y-13904674D02*
X13336729Y-13866579D01*
X13336729Y-13866579D02*
X13346253Y-13847531D01*
X13346253Y-13847531D02*
X13355777Y-13838008D01*
X13355777Y-13838008D02*
X13374825Y-13828484D01*
X13679587Y-14028484D02*
X13679587Y-13828484D01*
X13765301Y-14028484D02*
X13765301Y-13923722D01*
X13765301Y-13923722D02*
X13755777Y-13904674D01*
X13755777Y-13904674D02*
X13736730Y-13895150D01*
X13736730Y-13895150D02*
X13708158Y-13895150D01*
X13708158Y-13895150D02*
X13689110Y-13904674D01*
X13689110Y-13904674D02*
X13679587Y-13914198D01*
X13889110Y-14028484D02*
X13870063Y-14018960D01*
X13870063Y-14018960D02*
X13860539Y-14009436D01*
X13860539Y-14009436D02*
X13851015Y-13990388D01*
X13851015Y-13990388D02*
X13851015Y-13933246D01*
X13851015Y-13933246D02*
X13860539Y-13914198D01*
X13860539Y-13914198D02*
X13870063Y-13904674D01*
X13870063Y-13904674D02*
X13889110Y-13895150D01*
X13889110Y-13895150D02*
X13917682Y-13895150D01*
X13917682Y-13895150D02*
X13936730Y-13904674D01*
X13936730Y-13904674D02*
X13946253Y-13914198D01*
X13946253Y-13914198D02*
X13955777Y-13933246D01*
X13955777Y-13933246D02*
X13955777Y-13990388D01*
X13955777Y-13990388D02*
X13946253Y-14009436D01*
X13946253Y-14009436D02*
X13936730Y-14018960D01*
X13936730Y-14018960D02*
X13917682Y-14028484D01*
X13917682Y-14028484D02*
X13889110Y-14028484D01*
X14070063Y-14028484D02*
X14051015Y-14018960D01*
X14051015Y-14018960D02*
X14041491Y-13999912D01*
X14041491Y-13999912D02*
X14041491Y-13828484D01*
X14222444Y-14018960D02*
X14203396Y-14028484D01*
X14203396Y-14028484D02*
X14165301Y-14028484D01*
X14165301Y-14028484D02*
X14146253Y-14018960D01*
X14146253Y-14018960D02*
X14136730Y-13999912D01*
X14136730Y-13999912D02*
X14136730Y-13923722D01*
X14136730Y-13923722D02*
X14146253Y-13904674D01*
X14146253Y-13904674D02*
X14165301Y-13895150D01*
X14165301Y-13895150D02*
X14203396Y-13895150D01*
X14203396Y-13895150D02*
X14222444Y-13904674D01*
X14222444Y-13904674D02*
X14231968Y-13923722D01*
X14231968Y-13923722D02*
X14231968Y-13942769D01*
X14231968Y-13942769D02*
X14136730Y-13961817D01*
X14308158Y-14018960D02*
X14327206Y-14028484D01*
X14327206Y-14028484D02*
X14365301Y-14028484D01*
X14365301Y-14028484D02*
X14384349Y-14018960D01*
X14384349Y-14018960D02*
X14393872Y-13999912D01*
X14393872Y-13999912D02*
X14393872Y-13990388D01*
X14393872Y-13990388D02*
X14384349Y-13971341D01*
X14384349Y-13971341D02*
X14365301Y-13961817D01*
X14365301Y-13961817D02*
X14336730Y-13961817D01*
X14336730Y-13961817D02*
X14317682Y-13952293D01*
X14317682Y-13952293D02*
X14308158Y-13933246D01*
X14308158Y-13933246D02*
X14308158Y-13923722D01*
X14308158Y-13923722D02*
X14317682Y-13904674D01*
X14317682Y-13904674D02*
X14336730Y-13895150D01*
X14336730Y-13895150D02*
X14365301Y-13895150D01*
X14365301Y-13895150D02*
X14384349Y-13904674D01*
X14631968Y-13952293D02*
X14784349Y-13952293D01*
X14708158Y-14028484D02*
X14708158Y-13876103D01*
X15012920Y-13828484D02*
X15136730Y-13828484D01*
X15136730Y-13828484D02*
X15070063Y-13904674D01*
X15070063Y-13904674D02*
X15098634Y-13904674D01*
X15098634Y-13904674D02*
X15117682Y-13914198D01*
X15117682Y-13914198D02*
X15127206Y-13923722D01*
X15127206Y-13923722D02*
X15136730Y-13942769D01*
X15136730Y-13942769D02*
X15136730Y-13990388D01*
X15136730Y-13990388D02*
X15127206Y-14009436D01*
X15127206Y-14009436D02*
X15117682Y-14018960D01*
X15117682Y-14018960D02*
X15098634Y-14028484D01*
X15098634Y-14028484D02*
X15041492Y-14028484D01*
X15041492Y-14028484D02*
X15022444Y-14018960D01*
X15022444Y-14018960D02*
X15012920Y-14009436D01*
X15365301Y-14018960D02*
X15384349Y-14028484D01*
X15384349Y-14028484D02*
X15422444Y-14028484D01*
X15422444Y-14028484D02*
X15441492Y-14018960D01*
X15441492Y-14018960D02*
X15451015Y-13999912D01*
X15451015Y-13999912D02*
X15451015Y-13990388D01*
X15451015Y-13990388D02*
X15441492Y-13971341D01*
X15441492Y-13971341D02*
X15422444Y-13961817D01*
X15422444Y-13961817D02*
X15393873Y-13961817D01*
X15393873Y-13961817D02*
X15374825Y-13952293D01*
X15374825Y-13952293D02*
X15365301Y-13933246D01*
X15365301Y-13933246D02*
X15365301Y-13923722D01*
X15365301Y-13923722D02*
X15374825Y-13904674D01*
X15374825Y-13904674D02*
X15393873Y-13895150D01*
X15393873Y-13895150D02*
X15422444Y-13895150D01*
X15422444Y-13895150D02*
X15441492Y-13904674D01*
X15565301Y-14028484D02*
X15546254Y-14018960D01*
X15546254Y-14018960D02*
X15536730Y-13999912D01*
X15536730Y-13999912D02*
X15536730Y-13828484D01*
X15670063Y-14028484D02*
X15651015Y-14018960D01*
X15651015Y-14018960D02*
X15641492Y-14009436D01*
X15641492Y-14009436D02*
X15631968Y-13990388D01*
X15631968Y-13990388D02*
X15631968Y-13933246D01*
X15631968Y-13933246D02*
X15641492Y-13914198D01*
X15641492Y-13914198D02*
X15651015Y-13904674D01*
X15651015Y-13904674D02*
X15670063Y-13895150D01*
X15670063Y-13895150D02*
X15698635Y-13895150D01*
X15698635Y-13895150D02*
X15717682Y-13904674D01*
X15717682Y-13904674D02*
X15727206Y-13914198D01*
X15727206Y-13914198D02*
X15736730Y-13933246D01*
X15736730Y-13933246D02*
X15736730Y-13990388D01*
X15736730Y-13990388D02*
X15727206Y-14009436D01*
X15727206Y-14009436D02*
X15717682Y-14018960D01*
X15717682Y-14018960D02*
X15698635Y-14028484D01*
X15698635Y-14028484D02*
X15670063Y-14028484D01*
X15793873Y-13895150D02*
X15870063Y-13895150D01*
X15822444Y-13828484D02*
X15822444Y-13999912D01*
X15822444Y-13999912D02*
X15831968Y-14018960D01*
X15831968Y-14018960D02*
X15851015Y-14028484D01*
X15851015Y-14028484D02*
X15870063Y-14028484D01*
X15927206Y-14018960D02*
X15946254Y-14028484D01*
X15946254Y-14028484D02*
X15984349Y-14028484D01*
X15984349Y-14028484D02*
X16003396Y-14018960D01*
X16003396Y-14018960D02*
X16012920Y-13999912D01*
X16012920Y-13999912D02*
X16012920Y-13990388D01*
X16012920Y-13990388D02*
X16003396Y-13971341D01*
X16003396Y-13971341D02*
X15984349Y-13961817D01*
X15984349Y-13961817D02*
X15955777Y-13961817D01*
X15955777Y-13961817D02*
X15936730Y-13952293D01*
X15936730Y-13952293D02*
X15927206Y-13933246D01*
X15927206Y-13933246D02*
X15927206Y-13923722D01*
X15927206Y-13923722D02*
X15936730Y-13904674D01*
X15936730Y-13904674D02*
X15955777Y-13895150D01*
X15955777Y-13895150D02*
X15984349Y-13895150D01*
X15984349Y-13895150D02*
X16003396Y-13904674D01*
X16079587Y-14104674D02*
X16089111Y-14095150D01*
X16089111Y-14095150D02*
X16108158Y-14066579D01*
X16108158Y-14066579D02*
X16117682Y-14047531D01*
X16117682Y-14047531D02*
X16127206Y-14018960D01*
X16127206Y-14018960D02*
X16136730Y-13971341D01*
X16136730Y-13971341D02*
X16136730Y-13933246D01*
X16136730Y-13933246D02*
X16127206Y-13885627D01*
X16127206Y-13885627D02*
X16117682Y-13857055D01*
X16117682Y-13857055D02*
X16108158Y-13838008D01*
X16108158Y-13838008D02*
X16089111Y-13809436D01*
X16089111Y-13809436D02*
X16079587Y-13799912D01*
D15*
X9440000Y-14256000D02*
X9495000Y-14201000D01*
X9440000Y-14146000D01*
X9385000Y-14201000D01*
X9440000Y-14256000D01*
D11*
X9860539Y-14292484D02*
X9746253Y-14292484D01*
X9803396Y-14292484D02*
X9803396Y-14092484D01*
X9803396Y-14092484D02*
X9784348Y-14121055D01*
X9784348Y-14121055D02*
X9765301Y-14140103D01*
X9765301Y-14140103D02*
X9746253Y-14149627D01*
X9946253Y-14273436D02*
X9955777Y-14282960D01*
X9955777Y-14282960D02*
X9946253Y-14292484D01*
X9946253Y-14292484D02*
X9936729Y-14282960D01*
X9936729Y-14282960D02*
X9946253Y-14273436D01*
X9946253Y-14273436D02*
X9946253Y-14292484D01*
X10146253Y-14292484D02*
X10031967Y-14292484D01*
X10089110Y-14292484D02*
X10089110Y-14092484D01*
X10089110Y-14092484D02*
X10070063Y-14121055D01*
X10070063Y-14121055D02*
X10051015Y-14140103D01*
X10051015Y-14140103D02*
X10031967Y-14149627D01*
X10270063Y-14092484D02*
X10289110Y-14092484D01*
X10289110Y-14092484D02*
X10308158Y-14102008D01*
X10308158Y-14102008D02*
X10317682Y-14111531D01*
X10317682Y-14111531D02*
X10327205Y-14130579D01*
X10327205Y-14130579D02*
X10336729Y-14168674D01*
X10336729Y-14168674D02*
X10336729Y-14216293D01*
X10336729Y-14216293D02*
X10327205Y-14254388D01*
X10327205Y-14254388D02*
X10317682Y-14273436D01*
X10317682Y-14273436D02*
X10308158Y-14282960D01*
X10308158Y-14282960D02*
X10289110Y-14292484D01*
X10289110Y-14292484D02*
X10270063Y-14292484D01*
X10270063Y-14292484D02*
X10251015Y-14282960D01*
X10251015Y-14282960D02*
X10241491Y-14273436D01*
X10241491Y-14273436D02*
X10231967Y-14254388D01*
X10231967Y-14254388D02*
X10222444Y-14216293D01*
X10222444Y-14216293D02*
X10222444Y-14168674D01*
X10222444Y-14168674D02*
X10231967Y-14130579D01*
X10231967Y-14130579D02*
X10241491Y-14111531D01*
X10241491Y-14111531D02*
X10251015Y-14102008D01*
X10251015Y-14102008D02*
X10270063Y-14092484D01*
X10460539Y-14092484D02*
X10479586Y-14092484D01*
X10479586Y-14092484D02*
X10498634Y-14102008D01*
X10498634Y-14102008D02*
X10508158Y-14111531D01*
X10508158Y-14111531D02*
X10517682Y-14130579D01*
X10517682Y-14130579D02*
X10527205Y-14168674D01*
X10527205Y-14168674D02*
X10527205Y-14216293D01*
X10527205Y-14216293D02*
X10517682Y-14254388D01*
X10517682Y-14254388D02*
X10508158Y-14273436D01*
X10508158Y-14273436D02*
X10498634Y-14282960D01*
X10498634Y-14282960D02*
X10479586Y-14292484D01*
X10479586Y-14292484D02*
X10460539Y-14292484D01*
X10460539Y-14292484D02*
X10441491Y-14282960D01*
X10441491Y-14282960D02*
X10431967Y-14273436D01*
X10431967Y-14273436D02*
X10422444Y-14254388D01*
X10422444Y-14254388D02*
X10412920Y-14216293D01*
X10412920Y-14216293D02*
X10412920Y-14168674D01*
X10412920Y-14168674D02*
X10422444Y-14130579D01*
X10422444Y-14130579D02*
X10431967Y-14111531D01*
X10431967Y-14111531D02*
X10441491Y-14102008D01*
X10441491Y-14102008D02*
X10460539Y-14092484D01*
X10612920Y-14292484D02*
X10612920Y-14159150D01*
X10612920Y-14178198D02*
X10622444Y-14168674D01*
X10622444Y-14168674D02*
X10641491Y-14159150D01*
X10641491Y-14159150D02*
X10670063Y-14159150D01*
X10670063Y-14159150D02*
X10689110Y-14168674D01*
X10689110Y-14168674D02*
X10698634Y-14187722D01*
X10698634Y-14187722D02*
X10698634Y-14292484D01*
X10698634Y-14187722D02*
X10708158Y-14168674D01*
X10708158Y-14168674D02*
X10727205Y-14159150D01*
X10727205Y-14159150D02*
X10755777Y-14159150D01*
X10755777Y-14159150D02*
X10774825Y-14168674D01*
X10774825Y-14168674D02*
X10784348Y-14187722D01*
X10784348Y-14187722D02*
X10784348Y-14292484D01*
X10879586Y-14292484D02*
X10879586Y-14159150D01*
X10879586Y-14178198D02*
X10889110Y-14168674D01*
X10889110Y-14168674D02*
X10908158Y-14159150D01*
X10908158Y-14159150D02*
X10936729Y-14159150D01*
X10936729Y-14159150D02*
X10955777Y-14168674D01*
X10955777Y-14168674D02*
X10965301Y-14187722D01*
X10965301Y-14187722D02*
X10965301Y-14292484D01*
X10965301Y-14187722D02*
X10974825Y-14168674D01*
X10974825Y-14168674D02*
X10993872Y-14159150D01*
X10993872Y-14159150D02*
X11022444Y-14159150D01*
X11022444Y-14159150D02*
X11041491Y-14168674D01*
X11041491Y-14168674D02*
X11051015Y-14187722D01*
X11051015Y-14187722D02*
X11051015Y-14292484D01*
X11441491Y-14082960D02*
X11270063Y-14340103D01*
X11698634Y-14092484D02*
X11717682Y-14092484D01*
X11717682Y-14092484D02*
X11736729Y-14102008D01*
X11736729Y-14102008D02*
X11746253Y-14111531D01*
X11746253Y-14111531D02*
X11755777Y-14130579D01*
X11755777Y-14130579D02*
X11765301Y-14168674D01*
X11765301Y-14168674D02*
X11765301Y-14216293D01*
X11765301Y-14216293D02*
X11755777Y-14254388D01*
X11755777Y-14254388D02*
X11746253Y-14273436D01*
X11746253Y-14273436D02*
X11736729Y-14282960D01*
X11736729Y-14282960D02*
X11717682Y-14292484D01*
X11717682Y-14292484D02*
X11698634Y-14292484D01*
X11698634Y-14292484D02*
X11679586Y-14282960D01*
X11679586Y-14282960D02*
X11670063Y-14273436D01*
X11670063Y-14273436D02*
X11660539Y-14254388D01*
X11660539Y-14254388D02*
X11651015Y-14216293D01*
X11651015Y-14216293D02*
X11651015Y-14168674D01*
X11651015Y-14168674D02*
X11660539Y-14130579D01*
X11660539Y-14130579D02*
X11670063Y-14111531D01*
X11670063Y-14111531D02*
X11679586Y-14102008D01*
X11679586Y-14102008D02*
X11698634Y-14092484D01*
X11851015Y-14273436D02*
X11860539Y-14282960D01*
X11860539Y-14282960D02*
X11851015Y-14292484D01*
X11851015Y-14292484D02*
X11841491Y-14282960D01*
X11841491Y-14282960D02*
X11851015Y-14273436D01*
X11851015Y-14273436D02*
X11851015Y-14292484D01*
X11984348Y-14092484D02*
X12003396Y-14092484D01*
X12003396Y-14092484D02*
X12022444Y-14102008D01*
X12022444Y-14102008D02*
X12031967Y-14111531D01*
X12031967Y-14111531D02*
X12041491Y-14130579D01*
X12041491Y-14130579D02*
X12051015Y-14168674D01*
X12051015Y-14168674D02*
X12051015Y-14216293D01*
X12051015Y-14216293D02*
X12041491Y-14254388D01*
X12041491Y-14254388D02*
X12031967Y-14273436D01*
X12031967Y-14273436D02*
X12022444Y-14282960D01*
X12022444Y-14282960D02*
X12003396Y-14292484D01*
X12003396Y-14292484D02*
X11984348Y-14292484D01*
X11984348Y-14292484D02*
X11965301Y-14282960D01*
X11965301Y-14282960D02*
X11955777Y-14273436D01*
X11955777Y-14273436D02*
X11946253Y-14254388D01*
X11946253Y-14254388D02*
X11936729Y-14216293D01*
X11936729Y-14216293D02*
X11936729Y-14168674D01*
X11936729Y-14168674D02*
X11946253Y-14130579D01*
X11946253Y-14130579D02*
X11955777Y-14111531D01*
X11955777Y-14111531D02*
X11965301Y-14102008D01*
X11965301Y-14102008D02*
X11984348Y-14092484D01*
X12222444Y-14159150D02*
X12222444Y-14292484D01*
X12174825Y-14082960D02*
X12127206Y-14225817D01*
X12127206Y-14225817D02*
X12251015Y-14225817D01*
X12308158Y-14092484D02*
X12431967Y-14092484D01*
X12431967Y-14092484D02*
X12365301Y-14168674D01*
X12365301Y-14168674D02*
X12393872Y-14168674D01*
X12393872Y-14168674D02*
X12412920Y-14178198D01*
X12412920Y-14178198D02*
X12422444Y-14187722D01*
X12422444Y-14187722D02*
X12431967Y-14206769D01*
X12431967Y-14206769D02*
X12431967Y-14254388D01*
X12431967Y-14254388D02*
X12422444Y-14273436D01*
X12422444Y-14273436D02*
X12412920Y-14282960D01*
X12412920Y-14282960D02*
X12393872Y-14292484D01*
X12393872Y-14292484D02*
X12336729Y-14292484D01*
X12336729Y-14292484D02*
X12317682Y-14282960D01*
X12317682Y-14282960D02*
X12308158Y-14273436D01*
X12498634Y-14092484D02*
X12622444Y-14092484D01*
X12622444Y-14092484D02*
X12555777Y-14168674D01*
X12555777Y-14168674D02*
X12584348Y-14168674D01*
X12584348Y-14168674D02*
X12603396Y-14178198D01*
X12603396Y-14178198D02*
X12612920Y-14187722D01*
X12612920Y-14187722D02*
X12622444Y-14206769D01*
X12622444Y-14206769D02*
X12622444Y-14254388D01*
X12622444Y-14254388D02*
X12612920Y-14273436D01*
X12612920Y-14273436D02*
X12603396Y-14282960D01*
X12603396Y-14282960D02*
X12584348Y-14292484D01*
X12584348Y-14292484D02*
X12527206Y-14292484D01*
X12527206Y-14292484D02*
X12508158Y-14282960D01*
X12508158Y-14282960D02*
X12498634Y-14273436D01*
X12698634Y-14092484D02*
X12698634Y-14130579D01*
X12774825Y-14092484D02*
X12774825Y-14130579D01*
X13070063Y-14368674D02*
X13060539Y-14359150D01*
X13060539Y-14359150D02*
X13041491Y-14330579D01*
X13041491Y-14330579D02*
X13031968Y-14311531D01*
X13031968Y-14311531D02*
X13022444Y-14282960D01*
X13022444Y-14282960D02*
X13012920Y-14235341D01*
X13012920Y-14235341D02*
X13012920Y-14197246D01*
X13012920Y-14197246D02*
X13022444Y-14149627D01*
X13022444Y-14149627D02*
X13031968Y-14121055D01*
X13031968Y-14121055D02*
X13041491Y-14102008D01*
X13041491Y-14102008D02*
X13060539Y-14073436D01*
X13060539Y-14073436D02*
X13070063Y-14063912D01*
X13231968Y-14092484D02*
X13193872Y-14092484D01*
X13193872Y-14092484D02*
X13174825Y-14102008D01*
X13174825Y-14102008D02*
X13165301Y-14111531D01*
X13165301Y-14111531D02*
X13146253Y-14140103D01*
X13146253Y-14140103D02*
X13136729Y-14178198D01*
X13136729Y-14178198D02*
X13136729Y-14254388D01*
X13136729Y-14254388D02*
X13146253Y-14273436D01*
X13146253Y-14273436D02*
X13155777Y-14282960D01*
X13155777Y-14282960D02*
X13174825Y-14292484D01*
X13174825Y-14292484D02*
X13212920Y-14292484D01*
X13212920Y-14292484D02*
X13231968Y-14282960D01*
X13231968Y-14282960D02*
X13241491Y-14273436D01*
X13241491Y-14273436D02*
X13251015Y-14254388D01*
X13251015Y-14254388D02*
X13251015Y-14206769D01*
X13251015Y-14206769D02*
X13241491Y-14187722D01*
X13241491Y-14187722D02*
X13231968Y-14178198D01*
X13231968Y-14178198D02*
X13212920Y-14168674D01*
X13212920Y-14168674D02*
X13174825Y-14168674D01*
X13174825Y-14168674D02*
X13155777Y-14178198D01*
X13155777Y-14178198D02*
X13146253Y-14187722D01*
X13146253Y-14187722D02*
X13136729Y-14206769D01*
X13489110Y-14292484D02*
X13489110Y-14092484D01*
X13574825Y-14292484D02*
X13574825Y-14187722D01*
X13574825Y-14187722D02*
X13565301Y-14168674D01*
X13565301Y-14168674D02*
X13546253Y-14159150D01*
X13546253Y-14159150D02*
X13517682Y-14159150D01*
X13517682Y-14159150D02*
X13498634Y-14168674D01*
X13498634Y-14168674D02*
X13489110Y-14178198D01*
X13698634Y-14292484D02*
X13679587Y-14282960D01*
X13679587Y-14282960D02*
X13670063Y-14273436D01*
X13670063Y-14273436D02*
X13660539Y-14254388D01*
X13660539Y-14254388D02*
X13660539Y-14197246D01*
X13660539Y-14197246D02*
X13670063Y-14178198D01*
X13670063Y-14178198D02*
X13679587Y-14168674D01*
X13679587Y-14168674D02*
X13698634Y-14159150D01*
X13698634Y-14159150D02*
X13727206Y-14159150D01*
X13727206Y-14159150D02*
X13746253Y-14168674D01*
X13746253Y-14168674D02*
X13755777Y-14178198D01*
X13755777Y-14178198D02*
X13765301Y-14197246D01*
X13765301Y-14197246D02*
X13765301Y-14254388D01*
X13765301Y-14254388D02*
X13755777Y-14273436D01*
X13755777Y-14273436D02*
X13746253Y-14282960D01*
X13746253Y-14282960D02*
X13727206Y-14292484D01*
X13727206Y-14292484D02*
X13698634Y-14292484D01*
X13879587Y-14292484D02*
X13860539Y-14282960D01*
X13860539Y-14282960D02*
X13851015Y-14263912D01*
X13851015Y-14263912D02*
X13851015Y-14092484D01*
X14031968Y-14282960D02*
X14012920Y-14292484D01*
X14012920Y-14292484D02*
X13974825Y-14292484D01*
X13974825Y-14292484D02*
X13955777Y-14282960D01*
X13955777Y-14282960D02*
X13946253Y-14263912D01*
X13946253Y-14263912D02*
X13946253Y-14187722D01*
X13946253Y-14187722D02*
X13955777Y-14168674D01*
X13955777Y-14168674D02*
X13974825Y-14159150D01*
X13974825Y-14159150D02*
X14012920Y-14159150D01*
X14012920Y-14159150D02*
X14031968Y-14168674D01*
X14031968Y-14168674D02*
X14041491Y-14187722D01*
X14041491Y-14187722D02*
X14041491Y-14206769D01*
X14041491Y-14206769D02*
X13946253Y-14225817D01*
X14117682Y-14282960D02*
X14136730Y-14292484D01*
X14136730Y-14292484D02*
X14174825Y-14292484D01*
X14174825Y-14292484D02*
X14193872Y-14282960D01*
X14193872Y-14282960D02*
X14203396Y-14263912D01*
X14203396Y-14263912D02*
X14203396Y-14254388D01*
X14203396Y-14254388D02*
X14193872Y-14235341D01*
X14193872Y-14235341D02*
X14174825Y-14225817D01*
X14174825Y-14225817D02*
X14146253Y-14225817D01*
X14146253Y-14225817D02*
X14127206Y-14216293D01*
X14127206Y-14216293D02*
X14117682Y-14197246D01*
X14117682Y-14197246D02*
X14117682Y-14187722D01*
X14117682Y-14187722D02*
X14127206Y-14168674D01*
X14127206Y-14168674D02*
X14146253Y-14159150D01*
X14146253Y-14159150D02*
X14174825Y-14159150D01*
X14174825Y-14159150D02*
X14193872Y-14168674D01*
X14270063Y-14368674D02*
X14279587Y-14359150D01*
X14279587Y-14359150D02*
X14298634Y-14330579D01*
X14298634Y-14330579D02*
X14308158Y-14311531D01*
X14308158Y-14311531D02*
X14317682Y-14282960D01*
X14317682Y-14282960D02*
X14327206Y-14235341D01*
X14327206Y-14235341D02*
X14327206Y-14197246D01*
X14327206Y-14197246D02*
X14317682Y-14149627D01*
X14317682Y-14149627D02*
X14308158Y-14121055D01*
X14308158Y-14121055D02*
X14298634Y-14102008D01*
X14298634Y-14102008D02*
X14279587Y-14073436D01*
X14279587Y-14073436D02*
X14270063Y-14063912D01*
X9295000Y-14365000D02*
X9495000Y-14565000D01*
X9495000Y-14365000D02*
X9295000Y-14565000D01*
X9495000Y-14465000D02*
G75*
G03*
X9495000Y-14465000I-100000J0D01*
G01*
X9746253Y-14375531D02*
X9755777Y-14366008D01*
X9755777Y-14366008D02*
X9774824Y-14356484D01*
X9774824Y-14356484D02*
X9822444Y-14356484D01*
X9822444Y-14356484D02*
X9841491Y-14366008D01*
X9841491Y-14366008D02*
X9851015Y-14375531D01*
X9851015Y-14375531D02*
X9860539Y-14394579D01*
X9860539Y-14394579D02*
X9860539Y-14413627D01*
X9860539Y-14413627D02*
X9851015Y-14442198D01*
X9851015Y-14442198D02*
X9736729Y-14556484D01*
X9736729Y-14556484D02*
X9860539Y-14556484D01*
X9946253Y-14537436D02*
X9955777Y-14546960D01*
X9955777Y-14546960D02*
X9946253Y-14556484D01*
X9946253Y-14556484D02*
X9936729Y-14546960D01*
X9936729Y-14546960D02*
X9946253Y-14537436D01*
X9946253Y-14537436D02*
X9946253Y-14556484D01*
X10022444Y-14356484D02*
X10155777Y-14356484D01*
X10155777Y-14356484D02*
X10070063Y-14556484D01*
X10270063Y-14356484D02*
X10289110Y-14356484D01*
X10289110Y-14356484D02*
X10308158Y-14366008D01*
X10308158Y-14366008D02*
X10317682Y-14375531D01*
X10317682Y-14375531D02*
X10327205Y-14394579D01*
X10327205Y-14394579D02*
X10336729Y-14432674D01*
X10336729Y-14432674D02*
X10336729Y-14480293D01*
X10336729Y-14480293D02*
X10327205Y-14518388D01*
X10327205Y-14518388D02*
X10317682Y-14537436D01*
X10317682Y-14537436D02*
X10308158Y-14546960D01*
X10308158Y-14546960D02*
X10289110Y-14556484D01*
X10289110Y-14556484D02*
X10270063Y-14556484D01*
X10270063Y-14556484D02*
X10251015Y-14546960D01*
X10251015Y-14546960D02*
X10241491Y-14537436D01*
X10241491Y-14537436D02*
X10231967Y-14518388D01*
X10231967Y-14518388D02*
X10222444Y-14480293D01*
X10222444Y-14480293D02*
X10222444Y-14432674D01*
X10222444Y-14432674D02*
X10231967Y-14394579D01*
X10231967Y-14394579D02*
X10241491Y-14375531D01*
X10241491Y-14375531D02*
X10251015Y-14366008D01*
X10251015Y-14366008D02*
X10270063Y-14356484D01*
X10460539Y-14356484D02*
X10479586Y-14356484D01*
X10479586Y-14356484D02*
X10498634Y-14366008D01*
X10498634Y-14366008D02*
X10508158Y-14375531D01*
X10508158Y-14375531D02*
X10517682Y-14394579D01*
X10517682Y-14394579D02*
X10527205Y-14432674D01*
X10527205Y-14432674D02*
X10527205Y-14480293D01*
X10527205Y-14480293D02*
X10517682Y-14518388D01*
X10517682Y-14518388D02*
X10508158Y-14537436D01*
X10508158Y-14537436D02*
X10498634Y-14546960D01*
X10498634Y-14546960D02*
X10479586Y-14556484D01*
X10479586Y-14556484D02*
X10460539Y-14556484D01*
X10460539Y-14556484D02*
X10441491Y-14546960D01*
X10441491Y-14546960D02*
X10431967Y-14537436D01*
X10431967Y-14537436D02*
X10422444Y-14518388D01*
X10422444Y-14518388D02*
X10412920Y-14480293D01*
X10412920Y-14480293D02*
X10412920Y-14432674D01*
X10412920Y-14432674D02*
X10422444Y-14394579D01*
X10422444Y-14394579D02*
X10431967Y-14375531D01*
X10431967Y-14375531D02*
X10441491Y-14366008D01*
X10441491Y-14366008D02*
X10460539Y-14356484D01*
X10612920Y-14556484D02*
X10612920Y-14423150D01*
X10612920Y-14442198D02*
X10622444Y-14432674D01*
X10622444Y-14432674D02*
X10641491Y-14423150D01*
X10641491Y-14423150D02*
X10670063Y-14423150D01*
X10670063Y-14423150D02*
X10689110Y-14432674D01*
X10689110Y-14432674D02*
X10698634Y-14451722D01*
X10698634Y-14451722D02*
X10698634Y-14556484D01*
X10698634Y-14451722D02*
X10708158Y-14432674D01*
X10708158Y-14432674D02*
X10727205Y-14423150D01*
X10727205Y-14423150D02*
X10755777Y-14423150D01*
X10755777Y-14423150D02*
X10774825Y-14432674D01*
X10774825Y-14432674D02*
X10784348Y-14451722D01*
X10784348Y-14451722D02*
X10784348Y-14556484D01*
X10879586Y-14556484D02*
X10879586Y-14423150D01*
X10879586Y-14442198D02*
X10889110Y-14432674D01*
X10889110Y-14432674D02*
X10908158Y-14423150D01*
X10908158Y-14423150D02*
X10936729Y-14423150D01*
X10936729Y-14423150D02*
X10955777Y-14432674D01*
X10955777Y-14432674D02*
X10965301Y-14451722D01*
X10965301Y-14451722D02*
X10965301Y-14556484D01*
X10965301Y-14451722D02*
X10974825Y-14432674D01*
X10974825Y-14432674D02*
X10993872Y-14423150D01*
X10993872Y-14423150D02*
X11022444Y-14423150D01*
X11022444Y-14423150D02*
X11041491Y-14432674D01*
X11041491Y-14432674D02*
X11051015Y-14451722D01*
X11051015Y-14451722D02*
X11051015Y-14556484D01*
X11441491Y-14346960D02*
X11270063Y-14604103D01*
X11698634Y-14356484D02*
X11717682Y-14356484D01*
X11717682Y-14356484D02*
X11736729Y-14366008D01*
X11736729Y-14366008D02*
X11746253Y-14375531D01*
X11746253Y-14375531D02*
X11755777Y-14394579D01*
X11755777Y-14394579D02*
X11765301Y-14432674D01*
X11765301Y-14432674D02*
X11765301Y-14480293D01*
X11765301Y-14480293D02*
X11755777Y-14518388D01*
X11755777Y-14518388D02*
X11746253Y-14537436D01*
X11746253Y-14537436D02*
X11736729Y-14546960D01*
X11736729Y-14546960D02*
X11717682Y-14556484D01*
X11717682Y-14556484D02*
X11698634Y-14556484D01*
X11698634Y-14556484D02*
X11679586Y-14546960D01*
X11679586Y-14546960D02*
X11670063Y-14537436D01*
X11670063Y-14537436D02*
X11660539Y-14518388D01*
X11660539Y-14518388D02*
X11651015Y-14480293D01*
X11651015Y-14480293D02*
X11651015Y-14432674D01*
X11651015Y-14432674D02*
X11660539Y-14394579D01*
X11660539Y-14394579D02*
X11670063Y-14375531D01*
X11670063Y-14375531D02*
X11679586Y-14366008D01*
X11679586Y-14366008D02*
X11698634Y-14356484D01*
X11851015Y-14537436D02*
X11860539Y-14546960D01*
X11860539Y-14546960D02*
X11851015Y-14556484D01*
X11851015Y-14556484D02*
X11841491Y-14546960D01*
X11841491Y-14546960D02*
X11851015Y-14537436D01*
X11851015Y-14537436D02*
X11851015Y-14556484D01*
X12051015Y-14556484D02*
X11936729Y-14556484D01*
X11993872Y-14556484D02*
X11993872Y-14356484D01*
X11993872Y-14356484D02*
X11974825Y-14385055D01*
X11974825Y-14385055D02*
X11955777Y-14404103D01*
X11955777Y-14404103D02*
X11936729Y-14413627D01*
X12174825Y-14356484D02*
X12193872Y-14356484D01*
X12193872Y-14356484D02*
X12212920Y-14366008D01*
X12212920Y-14366008D02*
X12222444Y-14375531D01*
X12222444Y-14375531D02*
X12231967Y-14394579D01*
X12231967Y-14394579D02*
X12241491Y-14432674D01*
X12241491Y-14432674D02*
X12241491Y-14480293D01*
X12241491Y-14480293D02*
X12231967Y-14518388D01*
X12231967Y-14518388D02*
X12222444Y-14537436D01*
X12222444Y-14537436D02*
X12212920Y-14546960D01*
X12212920Y-14546960D02*
X12193872Y-14556484D01*
X12193872Y-14556484D02*
X12174825Y-14556484D01*
X12174825Y-14556484D02*
X12155777Y-14546960D01*
X12155777Y-14546960D02*
X12146253Y-14537436D01*
X12146253Y-14537436D02*
X12136729Y-14518388D01*
X12136729Y-14518388D02*
X12127206Y-14480293D01*
X12127206Y-14480293D02*
X12127206Y-14432674D01*
X12127206Y-14432674D02*
X12136729Y-14394579D01*
X12136729Y-14394579D02*
X12146253Y-14375531D01*
X12146253Y-14375531D02*
X12155777Y-14366008D01*
X12155777Y-14366008D02*
X12174825Y-14356484D01*
X12412920Y-14356484D02*
X12374825Y-14356484D01*
X12374825Y-14356484D02*
X12355777Y-14366008D01*
X12355777Y-14366008D02*
X12346253Y-14375531D01*
X12346253Y-14375531D02*
X12327206Y-14404103D01*
X12327206Y-14404103D02*
X12317682Y-14442198D01*
X12317682Y-14442198D02*
X12317682Y-14518388D01*
X12317682Y-14518388D02*
X12327206Y-14537436D01*
X12327206Y-14537436D02*
X12336729Y-14546960D01*
X12336729Y-14546960D02*
X12355777Y-14556484D01*
X12355777Y-14556484D02*
X12393872Y-14556484D01*
X12393872Y-14556484D02*
X12412920Y-14546960D01*
X12412920Y-14546960D02*
X12422444Y-14537436D01*
X12422444Y-14537436D02*
X12431967Y-14518388D01*
X12431967Y-14518388D02*
X12431967Y-14470769D01*
X12431967Y-14470769D02*
X12422444Y-14451722D01*
X12422444Y-14451722D02*
X12412920Y-14442198D01*
X12412920Y-14442198D02*
X12393872Y-14432674D01*
X12393872Y-14432674D02*
X12355777Y-14432674D01*
X12355777Y-14432674D02*
X12336729Y-14442198D01*
X12336729Y-14442198D02*
X12327206Y-14451722D01*
X12327206Y-14451722D02*
X12317682Y-14470769D01*
X12498634Y-14356484D02*
X12622444Y-14356484D01*
X12622444Y-14356484D02*
X12555777Y-14432674D01*
X12555777Y-14432674D02*
X12584348Y-14432674D01*
X12584348Y-14432674D02*
X12603396Y-14442198D01*
X12603396Y-14442198D02*
X12612920Y-14451722D01*
X12612920Y-14451722D02*
X12622444Y-14470769D01*
X12622444Y-14470769D02*
X12622444Y-14518388D01*
X12622444Y-14518388D02*
X12612920Y-14537436D01*
X12612920Y-14537436D02*
X12603396Y-14546960D01*
X12603396Y-14546960D02*
X12584348Y-14556484D01*
X12584348Y-14556484D02*
X12527206Y-14556484D01*
X12527206Y-14556484D02*
X12508158Y-14546960D01*
X12508158Y-14546960D02*
X12498634Y-14537436D01*
X12698634Y-14356484D02*
X12698634Y-14394579D01*
X12774825Y-14356484D02*
X12774825Y-14394579D01*
X13070063Y-14632674D02*
X13060539Y-14623150D01*
X13060539Y-14623150D02*
X13041491Y-14594579D01*
X13041491Y-14594579D02*
X13031968Y-14575531D01*
X13031968Y-14575531D02*
X13022444Y-14546960D01*
X13022444Y-14546960D02*
X13012920Y-14499341D01*
X13012920Y-14499341D02*
X13012920Y-14461246D01*
X13012920Y-14461246D02*
X13022444Y-14413627D01*
X13022444Y-14413627D02*
X13031968Y-14385055D01*
X13031968Y-14385055D02*
X13041491Y-14366008D01*
X13041491Y-14366008D02*
X13060539Y-14337436D01*
X13060539Y-14337436D02*
X13070063Y-14327912D01*
X13136729Y-14375531D02*
X13146253Y-14366008D01*
X13146253Y-14366008D02*
X13165301Y-14356484D01*
X13165301Y-14356484D02*
X13212920Y-14356484D01*
X13212920Y-14356484D02*
X13231968Y-14366008D01*
X13231968Y-14366008D02*
X13241491Y-14375531D01*
X13241491Y-14375531D02*
X13251015Y-14394579D01*
X13251015Y-14394579D02*
X13251015Y-14413627D01*
X13251015Y-14413627D02*
X13241491Y-14442198D01*
X13241491Y-14442198D02*
X13127206Y-14556484D01*
X13127206Y-14556484D02*
X13251015Y-14556484D01*
X13489110Y-14556484D02*
X13489110Y-14356484D01*
X13574825Y-14556484D02*
X13574825Y-14451722D01*
X13574825Y-14451722D02*
X13565301Y-14432674D01*
X13565301Y-14432674D02*
X13546253Y-14423150D01*
X13546253Y-14423150D02*
X13517682Y-14423150D01*
X13517682Y-14423150D02*
X13498634Y-14432674D01*
X13498634Y-14432674D02*
X13489110Y-14442198D01*
X13698634Y-14556484D02*
X13679587Y-14546960D01*
X13679587Y-14546960D02*
X13670063Y-14537436D01*
X13670063Y-14537436D02*
X13660539Y-14518388D01*
X13660539Y-14518388D02*
X13660539Y-14461246D01*
X13660539Y-14461246D02*
X13670063Y-14442198D01*
X13670063Y-14442198D02*
X13679587Y-14432674D01*
X13679587Y-14432674D02*
X13698634Y-14423150D01*
X13698634Y-14423150D02*
X13727206Y-14423150D01*
X13727206Y-14423150D02*
X13746253Y-14432674D01*
X13746253Y-14432674D02*
X13755777Y-14442198D01*
X13755777Y-14442198D02*
X13765301Y-14461246D01*
X13765301Y-14461246D02*
X13765301Y-14518388D01*
X13765301Y-14518388D02*
X13755777Y-14537436D01*
X13755777Y-14537436D02*
X13746253Y-14546960D01*
X13746253Y-14546960D02*
X13727206Y-14556484D01*
X13727206Y-14556484D02*
X13698634Y-14556484D01*
X13879587Y-14556484D02*
X13860539Y-14546960D01*
X13860539Y-14546960D02*
X13851015Y-14527912D01*
X13851015Y-14527912D02*
X13851015Y-14356484D01*
X14031968Y-14546960D02*
X14012920Y-14556484D01*
X14012920Y-14556484D02*
X13974825Y-14556484D01*
X13974825Y-14556484D02*
X13955777Y-14546960D01*
X13955777Y-14546960D02*
X13946253Y-14527912D01*
X13946253Y-14527912D02*
X13946253Y-14451722D01*
X13946253Y-14451722D02*
X13955777Y-14432674D01*
X13955777Y-14432674D02*
X13974825Y-14423150D01*
X13974825Y-14423150D02*
X14012920Y-14423150D01*
X14012920Y-14423150D02*
X14031968Y-14432674D01*
X14031968Y-14432674D02*
X14041491Y-14451722D01*
X14041491Y-14451722D02*
X14041491Y-14470769D01*
X14041491Y-14470769D02*
X13946253Y-14489817D01*
X14117682Y-14546960D02*
X14136730Y-14556484D01*
X14136730Y-14556484D02*
X14174825Y-14556484D01*
X14174825Y-14556484D02*
X14193872Y-14546960D01*
X14193872Y-14546960D02*
X14203396Y-14527912D01*
X14203396Y-14527912D02*
X14203396Y-14518388D01*
X14203396Y-14518388D02*
X14193872Y-14499341D01*
X14193872Y-14499341D02*
X14174825Y-14489817D01*
X14174825Y-14489817D02*
X14146253Y-14489817D01*
X14146253Y-14489817D02*
X14127206Y-14480293D01*
X14127206Y-14480293D02*
X14117682Y-14461246D01*
X14117682Y-14461246D02*
X14117682Y-14451722D01*
X14117682Y-14451722D02*
X14127206Y-14432674D01*
X14127206Y-14432674D02*
X14146253Y-14423150D01*
X14146253Y-14423150D02*
X14174825Y-14423150D01*
X14174825Y-14423150D02*
X14193872Y-14432674D01*
X14270063Y-14632674D02*
X14279587Y-14623150D01*
X14279587Y-14623150D02*
X14298634Y-14594579D01*
X14298634Y-14594579D02*
X14308158Y-14575531D01*
X14308158Y-14575531D02*
X14317682Y-14546960D01*
X14317682Y-14546960D02*
X14327206Y-14499341D01*
X14327206Y-14499341D02*
X14327206Y-14461246D01*
X14327206Y-14461246D02*
X14317682Y-14413627D01*
X14317682Y-14413627D02*
X14308158Y-14385055D01*
X14308158Y-14385055D02*
X14298634Y-14366008D01*
X14298634Y-14366008D02*
X14279587Y-14337436D01*
X14279587Y-14337436D02*
X14270063Y-14327912D01*
M02*
