%TF.GenerationSoftware,KiCad,Pcbnew,7.0.7*%
%TF.CreationDate,2023-09-17T16:53:54-03:00*%
%TF.ProjectId,nihon_lamp,6e69686f-6e5f-46c6-916d-702e6b696361,rev?*%
%TF.SameCoordinates,Original*%
%TF.FileFunction,Soldermask,Bot*%
%TF.FilePolarity,Negative*%
%FSLAX46Y46*%
G04 Gerber Fmt 4.6, Leading zero omitted, Abs format (unit mm)*
G04 Created by KiCad (PCBNEW 7.0.7) date 2023-09-17 16:53:54*
%MOMM*%
%LPD*%
G01*
G04 APERTURE LIST*
G04 Aperture macros list*
%AMRoundRect*
0 Rectangle with rounded corners*
0 $1 Rounding radius*
0 $2 $3 $4 $5 $6 $7 $8 $9 X,Y pos of 4 corners*
0 Add a 4 corners polygon primitive as box body*
4,1,4,$2,$3,$4,$5,$6,$7,$8,$9,$2,$3,0*
0 Add four circle primitives for the rounded corners*
1,1,$1+$1,$2,$3*
1,1,$1+$1,$4,$5*
1,1,$1+$1,$6,$7*
1,1,$1+$1,$8,$9*
0 Add four rect primitives between the rounded corners*
20,1,$1+$1,$2,$3,$4,$5,0*
20,1,$1+$1,$4,$5,$6,$7,0*
20,1,$1+$1,$6,$7,$8,$9,0*
20,1,$1+$1,$8,$9,$2,$3,0*%
G04 Aperture macros list end*
%ADD10C,1.600000*%
%ADD11O,1.600000X1.600000*%
%ADD12R,1.700000X1.700000*%
%ADD13O,1.700000X1.700000*%
%ADD14O,3.500000X3.500000*%
%ADD15R,1.905000X2.000000*%
%ADD16O,1.905000X2.000000*%
%ADD17R,3.800000X3.800000*%
%ADD18C,4.000000*%
%ADD19R,3.500000X3.500000*%
%ADD20RoundRect,0.750000X-0.750000X-1.000000X0.750000X-1.000000X0.750000X1.000000X-0.750000X1.000000X0*%
%ADD21RoundRect,0.875000X-0.875000X-0.875000X0.875000X-0.875000X0.875000X0.875000X-0.875000X0.875000X0*%
%ADD22R,1.050000X1.500000*%
%ADD23O,1.050000X1.500000*%
G04 APERTURE END LIST*
D10*
%TO.C,R3*%
X147500000Y-72420000D03*
D11*
X147500000Y-82580000D03*
%TD*%
D12*
%TO.C,J4*%
X99760000Y-72500000D03*
D13*
X102300000Y-72500000D03*
X104840000Y-72500000D03*
X107380000Y-72500000D03*
X109920000Y-72500000D03*
X112460000Y-72500000D03*
X115000000Y-72500000D03*
X117540000Y-72500000D03*
X120080000Y-72500000D03*
X122620000Y-72500000D03*
X125160000Y-72500000D03*
X127700000Y-72500000D03*
X130240000Y-72500000D03*
X132780000Y-72500000D03*
X135320000Y-72500000D03*
%TD*%
D10*
%TO.C,R1*%
X142500000Y-87500000D03*
D11*
X142500000Y-97660000D03*
%TD*%
D10*
%TO.C,C2*%
X138000000Y-112500000D03*
X140000000Y-112500000D03*
%TD*%
D14*
%TO.C,U2*%
X127500000Y-119930000D03*
D15*
X130040000Y-103270000D03*
D16*
X127500000Y-103270000D03*
X124960000Y-103270000D03*
%TD*%
D10*
%TO.C,C3*%
X138000000Y-105000000D03*
X140000000Y-105000000D03*
%TD*%
D14*
%TO.C,U3*%
X115000000Y-119930000D03*
D15*
X117540000Y-103270000D03*
D16*
X115000000Y-103270000D03*
X112460000Y-103270000D03*
%TD*%
D10*
%TO.C,C1*%
X138000000Y-120000000D03*
X140000000Y-120000000D03*
%TD*%
D12*
%TO.C,J3*%
X99800000Y-97500000D03*
D13*
X102340000Y-97500000D03*
X104880000Y-97500000D03*
X107420000Y-97500000D03*
X109960000Y-97500000D03*
X112500000Y-97500000D03*
X115040000Y-97500000D03*
X117580000Y-97500000D03*
X120120000Y-97500000D03*
X122660000Y-97500000D03*
X125200000Y-97500000D03*
X127740000Y-97500000D03*
X130280000Y-97500000D03*
X132820000Y-97500000D03*
X135360000Y-97500000D03*
%TD*%
D10*
%TO.C,R4*%
X147500000Y-87500000D03*
D11*
X147500000Y-97660000D03*
%TD*%
D17*
%TO.C,J1*%
X147500000Y-112500000D03*
D18*
X147500000Y-117500000D03*
%TD*%
D19*
%TO.C,J2*%
X106000000Y-112500000D03*
D20*
X100000000Y-112500000D03*
D21*
X103000000Y-117200000D03*
%TD*%
D10*
%TO.C,R2*%
X142500000Y-72420000D03*
D11*
X142500000Y-82580000D03*
%TD*%
D22*
%TO.C,Q1*%
X144960000Y-102500000D03*
D23*
X146230000Y-102500000D03*
X147500000Y-102500000D03*
%TD*%
M02*
